<svg xmlns="http://www.w3.org/2000/svg" viewBox="0 0 96 92"><path d="M96 0c.3 3.1-1.1 6.4-2.1 9.3-6 17.9-10.1 38.5-15 59.1-1.3 5.6-2.8 10.8-3.1 18-8.4-2.6-14.8-7.2-22.2-10.8-2.8 1.9-4 5.2-5.7 8.2-1.6 2.8-2.5 6.4-5.2 8.2-4.6-3.7-5.2-11.1-7.2-17.5-.6-1.9-1.8-3.6-2.6-5.7-.8-2-1-4.1-2.1-5.7-3.8-5.6-11.1-6.7-17.5-9.3-2.3-.9-4.4-2.6-6.7-3.6-2.3-.9-5.2-.8-6.7-3.1C12.5 35.9 30.5 32 46.3 24c7.9-4 15.8-7.7 23.7-11.3 9.1-3.9 17.7-7 24.9-12.7H96zM40.2 73.5c1.9-1.9 2.1-5.5 5.7-5.7 1.1-1.9-.7-1.3-.5-3.6.5-3.3 2.6-7.7 2.1-10.3-3.2 3-1.6 13.4-6.2 13.4.6-1.2 1.9-4.3.5-5.7-.6 4.2-3.7 5.9-4.1 10.3 2.3.2 1.3-2.8 3.1-3.1-.3 1.2-3 4.3-.6 4.7zm30.5-58.6c-5.9 2.8-12.2 5.3-18.1 8.2-16.9 8.6-34.8 13.8-48.5 24.2 9.1 4.3 20 6.8 26.8 13.4 21.2-16.4 40.9-34.3 58.8-54 0-.3-.1-.6-.5-.5-6.1 2.4-12 5.6-18.5 8.7zM47 69.4c7.1 4.7 15.9 7.8 23.7 11.8C75 57 83.7 37.3 88.8 13.9c.5 0 .4-.7-.5-.5C75.2 32.7 59 49 47 69.4zm30.4-46.8c2-1.9 6.5-4.2 6.2-6.7-2.2 1.6-6.2 6.4-6.2 6.7zM68.1 36c-.1-1.6 1.4-1.7 1-3.6-1.8-.2-2.8 3.3-1 3.6zm-4.6 3.6c0-.3.1-.6.5-.5-.1-.6-.2-1.2-1-1 0 .5-.1 1.4.5 1.5zm-5.7 2.5c1.4.2 1.7-.7 1.5-2.1-1.4.1-2.5 1.3-1.5 2.1zm3.1 2.1c1.2 1.3 4.7-2.7 2.1-3.6-.7 1.3-2.1 1.7-2.1 3.6zm-11.4 3.6c2.1-1.2 4.2-2.3 5.7-4.1-2.5.8-3.9 2.6-5.7 4.1zm4.7 5.7c3.2-.4 4.1-7.9 3.1-9.3-2 2.2-3.1 5.2-3.1 9.3zm-1.6-1.1c0-1.3 2.8-4.4.5-4.6.5 1.9-2.2 3.2-.5 4.6zm-6.2 12.4c3.5-1.1 3.3-6.4 4.1-10.3.5-2.2 2.2-4.9.5-5.7-2.7 4.1-3.2 10.5-4.6 16zm-10.3 2c.9-4.1 5-7.1 4.1-11.3 1.3-.2 4.6-2.9 2.6-3.1-3.6 3.1-7.6 8.5-6.7 14.4zm15-8.7c1.6-.2 1.5-4.6 1-5.1-.7 1.3-1.3 2.8-1 5.1zm-9.8 2.5c2.5-.4 3.8-4.8 3.1-6.7-2.1 1.2-3 3.6-3.1 6.7zm-7.2 3.1c.3-.3 1.2-2.4 0-2.6-.3.4-1.3 2.5 0 2.6zm3 6.2c.4-2.5 3.5-5.1 2.1-7.7-1.2 1.7-3.2 5.4-2.1 7.7zm9.3 4.6c.2-.3 1.3-2 0-2.1.5 1-1.5 1.8 0 2.1zm-7.2 4.7c.9-1.6 0-5.8-2.1-6.2-.6 1.6.4 5.2 2.1 6.2zm6.7 2.5c1-3 3.9-4 3.6-8.2-4.4.2-4.2 5.6-3.6 8.2z" opacity=".7" fill-rule="evenodd" clip-rule="evenodd" fill="#fff"/></svg>