<svg xmlns="http://www.w3.org/2000/svg" viewBox="0 0 132 110.1"><path d="M129.7 20.5c-1 4.1-6.3 8.8-2.9 15.2 2 .2.9-2.6 3.5-1.8-.3 1.5.2 2.1 1.7 1.8-1.7 3.8-4.9 6.9-7.6 9.9-7.5 8.8-15.9 17.7-23.3 27.5C91.4 86 81.6 98.8 69 108.8c-6.2-4.8-16.1-6.1-25.1-8.2-1.7 2.7.5 6.9-.6 9.4-3.2.5-2.3-3.2-4.1-4.1-3 .1-1.5 4.7-5.3 4.1-.7-3.1.9-6.6 1.2-10.5-1.1-2-3.8-2.2-5.8-2.9-8.7-3.1-19.9-5.8-26.8-11.1C1.4 79.7-1.3 74.4.7 68c1-3.1 5.4-7.4 8.8-11.7 6.1-7.8 12.8-13.9 19.8-21 3.7-3.8 6.3-7.9 9.3-11.1 1.6-1.6 3.9-2.3 5.3-4.1.8-1.1 1-2.6 1.8-3.5C51.1 9.9 59.1 5.3 64.3.1c2-.4 1.9 1.2 2.9 1.8 9.3 2.7 18.7 5.4 28 8.2 9.3 2.8 17.7 7.1 26.3 9.9 2.3.7 5.1.9 8.2.5zM73.1 24c5.6-.5 10.1-2 12.8-5.3-3.4 1.2-5.7 1.3-7.6-1.2 4.8-1.2 10.6-1.4 13.4-4.7-5.8.2-9.5 2.6-14.6 3.5.3 4.2-3.7 4.1-5.3 6.4 1.4.8 2.4-1.7 2.9 0-.9.1-1.4.6-1.6 1.3zM57.9 10.6c2.4-.2-.1.8.6 2.3 2.9-.8 5.1-2.3 6.4-4.7-1.7-.5-3.6 1.8-4.1.6 1-1 5.4-2.6 2.3-4.1-1.5 2.2-4 3.3-5.2 5.9zm7 0c2.3.7 3.1-2 1.2-2.3-.3.8-.9 1.4-1.2 2.3zM76 14.7c2.4.3 7.5-1.4 9.9-2.9-2.4-.3-8.2.6-9.9 2.9zm-9.9-1.8c-.3.1-3.2-.1-3.5 2.3 3.6 0 6.2-2.9 3.5-2.3zm5.2 0c-1.7 2-5.2 2.2-8.2 2.9-2.5 5.7-11.3 5.1-13.4 11.1 5.6-1.8 9.2-3 13.4-5.3 1.5-5.7 5.5-5.5 10.5-7 .2-1.5-.7-1.8-2.3-1.7zm21 2.9c3-.3 6.8.2 7.6-2.3-3.1-1-6.3 0-7.6 2.3zm5.9 1.2c4-1.2 5.1.9 8.2 0-1.1-3.5-6.7-2.2-8.2 0zM48 18.8c.2-1 3.1-2.3 1.2-3.5.1 1.3-2.8 2.5-1.2 3.5zm22.2.6c.2-1 .8.1 1.7 0-.3-3 2.1 0 1.7-2.3-1 .4-5 1-3.4 2.3zm4-1.2h1.2V17h-1.2v1.2zm19.3 0c1.5 0 3.4.3 3.5-1.2-1.7-.1-3 .2-3.5 1.2zm-8.2 4.1c2.3-.1 4.2-.4 4.7-2.3-2.2.1-4 .6-4.7 2.3zm9.9 2.9c6-.6 11.3-1.9 14.6-5.3-5.7 1-11 2.2-14.6 5.3zm-49-.6c2.2-.2 4.6-2.4 3.5-4.1-2.1.4-3 2-3.5 4.1zm58.4-.6c2.2 2.4-1 1.3-1.2 4.1 3.4.7 2.5-3 4.7-3.5 2.1-.8 6.7-2.2 5.8-4.1-2.8 1.4-6.3 2.3-9.3 3.5zm-36.2 1.2c1.3-.8 2.1-2.1 2.3-4.1-3.4 1.6-8 2.1-10.5 4.7 1.8 1.6 2.9.5 5.8 1.2 1.4-.8.6-3.7 2.9-3.5.4 0 .7.1.6.6-.9-.5-2.5 1.1-1.1 1.1zm26.8-3.5c-1.4-.2-1.3 1.1-2.9.6.1-1-.6-1.4-1.7-1.2-.7 2.6 4.9 3.6 4.6.6zM82.4 39.2c2.1-.4 3.6-1.5 4.7-2.9-2 .5-4.9.1-4.7 2.9zm16.9-2.3c1.3-1.2-.5-1.9.6-2.9 4.2-1.1 7.3-3.2 9.3-6.4 3.2-2.4 8-3.3 10.5-6.4-4.9 2.1-11.1 2.9-13.4 7.6-2 1.5-5.5 1.5-7.6 2.9.1-1.2-.6-1.1-1.8-1.2-5.9-.2-11.3 5.3-18.7 4.7-2.5 2.5-7.5 2.7-9.3 5.8 9.6-1.7 18.5-7.2 27.4-7.6-2 1.3-5.2 1.5-5.8 4.1 2.2.2 4.2-2.8 5.8-1.2-2.8 1.2-6.3 1.9-9.3 2.9-3 1-7.3 2-8.8 4.1 7.1-2.2 15.5-2.9 21.1-6.4zm-2.9 2.9c-6.7 1.3-11.5 4.5-15.2 8.8 3.5-.2 6.5-.9 8.2-2.9-.7-.1-1.4-.2-1.2-1.2 2.9-1.5 6.2-2.4 8.2-4.7zM78.9 50.3c1.8-2.5 3.3-5.2 5.8-7-4.8.1-8.9 3.9-13.4 2.3 2.1-1.6 5.5-1.9 6.4-4.7-3.2.1-5.3 1.3-7.6 2.3v2.9c-3 1.1-7.9 1.4-7.6 4.1-5.2 2-13.9.5-15.8 5.8 6.7-.9 15.7-2.5 17.5-6.4 2.5-.8 5.4-1.2 8.2-1.8-1.2 3.3-6.4 2.5-8.2 5.3 5.8 0 9.3-2.3 14.7-2.8zm21-9.9c-2.7.2-8 2.4-9.9 5.3 4.3-.8 7.1-3.1 9.9-5.3zm-11.1 9.9c2.9-.8 4.7-2.7 5.8-5.3-2.5 1.2-5.5 1.9-5.8 5.3zM28.7 39.8c2.4-2.4 5-5.4 7.6-8.2 2.5-2.7 6.4-5.3 6.4-8.8-3.7 6.3-11.5 11.5-14 17zm47.9-4.7c1.1-.2 2.5-.2 2.3-1.8-1.1.3-2.5.3-2.3 1.8zm7-7.6c.2-1.1-.8-1.2-1.2-1.8 2.5-.2 5.1-.3 5.8-2.3-4.8-.8-11.1 1.7-14 4.7 1.7.1 3.9-2.3 5.3-.6-3.8.7-6.9 2.1-10.5 2.9-1.1 1 .7 1.7-.6 2.9-8.5 2.4-14.3 7.5-22.8 9.9-1.6.9 1 2.4-.6 2.9-7.1 3-16.6.7-21.6 6.4 2.3.7 4.4-1.8 5.8 0-2.6 1.1-6.5.9-7.6 3.5 2.7 1.1 6-1 9.3-1.8 4.4-1 11.1-.3 12.3-4.7-5.1-.5-9.1 5.2-13.4 1.8 16.7-2 26.4-11 39.1-16.9.9.1.5 1.5 1.7 1.2 6.4-3 14.6-4.1 20.4-7.6-6.3 1.1-11.7 3.1-17.5 4.7 1.9-3.2 6.3-3.9 10.1-5.2zm9.3-2.3c-3.9.3-6.9 1.6-9.3 3.5 1.6-.4 9 .2 9.3-3.5zm-44.3 2.9c-3.2 2.1-6.6 3.9-9.3 6.4-2.8.7-7.2 2.9-6.4 5.3 3.5-2.7 8.5-4 11.7-7 5.1.1 11.1-3.6 14.6-7-3.7.6-7.7 4.7-10.6 2.3zm68.8 0c1.5-.1 2.3-.8 2.3-2.3-1.4.1-2.2.8-2.3 2.3zm-68.2 4.7c-2.5 3.1-8.2 3.1-9.9 7 7.1-1.1 14.6-6.7 22.2-9.4 4.4 1.2 8.8-1.9 11.7-4.1-10.1.2-15 5.4-24 6.5zm44.3-3.5c2.2 0 4-.3 4.1-2.3-1.8-1.5-3.9.3-4.1 2.3zm-52.5.6c2.6.8 4.8-2.2 2.3-2.9-.4 1.3-1.9 1.5-2.3 2.9zm71.2 2.3h1.2V31h-1.2v1.2zm-60.7 5.3c3.1.1 5.8-.8 8.2-1.8 2.2-.8 5.1-2.2 6.4-4.1-5.3 2.7-11.1 1.3-14.6 5.9zm42.6 29.8c-2 1-6.6 4.2-4.1 5.8 4-3.2 6-8.4 10.5-11.1-.1 2.6-2.3 3.2-3.5 4.7-.7 1.9 1.9.4 1.2 2.3-3.9 3.5-8.3 6.4-12.3 9.9-3.8 3.4-7.1 7.8-12.3 9.9 2.9-4 6.6-7 8.2-12.3-3.6 2.7-6.4 6.1-8.8 9.9-1.7-.9-1.8 0-4.1-.6-2.8 3.4-5 14.4.6 16.4 22-17 35.1-42.7 53.7-63.1-1-1.7-1.4-4.1-1.2-7-6.8 6.6-13.1 13.7-19.8 20.5-6.8 6.8-13.6 13.8-18.7 22.2 8-5.4 13.4-13.5 20.5-19.8-1.7 5.7-8 6.8-9.9 12.3zm8.7-27.5h1.2c.9-1.4-2-1.7-1.8-.6.4.1.7.1.6.6zm-77.6 2.9c1.3.2 3.2-1.8 1.8-2.3-.2 1.2-1.6 1.1-1.8 2.3zm6.5-.6c0-1-.4-1.5-1.2-1.8-.8.9-.9 2.4 1.2 1.8zm19.8 4.7c5.8-.6 14.1-1.9 14-6.4-4 2.8-10.4 3.2-14 6.4zm-25.7 0c4.3-1.7 10.6-1.5 12.8-5.3-4.1 1.9-11 1.1-12.8 5.3zm29.8 2.4c2.9.1 9.5-.9 11.1-4.1-4.4.6-9.4.7-11.1 4.1zm-11.1 4c3.2-.3 6.8-.2 6.4-4.1-2.8.8-6.8.3-6.4 4.1zm-23.9-2.9c-.2 2.7 2.5 1.3 2.9 0-1.8-.4-1.1-.4-2.9 0zm53.6 3.5c4-1.4 9.4-1.5 12.3-4.1-4.9.6-9.1 1.9-12.3 4.1zm-12.8 7.6c1.6.5 1.5-.8 2.9-.6-.2 1.4-2 1.1-1.8 2.9 2.8.8 2.9 1.1 6.4.6-2.5 4.5-12.8 1.2-17.5 3.5.7 3.5 5.1 1.3 7.6 1.2 3.2-.2 6.7-.6 9.3-.6.2-1.9 3.9-3.2 1.2-4.7 6.8-1.4 13.3-3.1 18.1-6.4-.4-.8-2.2-.1-2.3-1.2 1.9.2 2.8-.7 2.9-2.3-1.5-1.5-2.3.7-4.1.6.7-.9.7-1.5 0-2.3-2.8-.1-5.9 2-4.7 4.1 1.8.1 2-1.6 4.1-1.2-1.2 1.2.3 1.1.6 2.3-6.8 1.4-12.9 3.4-18.7 5.8 1.5-.7-.5-2.9.6-2.9 4.4-1.2 8.9-2.4 12.3-4.7-6.6.6-11.7 2.7-16.9 4.7-.1-.9.1-2-1.2-1.8-.4 1.9 1.6 1.2 1.2 3zm-45.5-4.6c2.1.3 3-.5 3.5-1.8-.8-.2-1.1-.8-2.3-.6-.3.9-.9 1.5-1.2 2.4zM48 59.1c6-.8 13.2-.4 15.8-4.7-5.7 1.2-12.1 1.6-15.8 4.7zm-37.3-.6c1.5-.1 2.3-.8 2.3-2.3-1.8-.3-1.7 1.4-2.3 2.3zm16.9 1.2c3.4-.9 8.3-.3 9.9-2.9-3.2 1-7.8.7-9.9 2.9zm11.6 1.7c-.5.1-.7.5-.6 1.2 2.1.1 9.5.5 10.5-2.3-4.1-.5-6 1.3-9.9 1.1zm5.3-2.9c-4.8-.7-12.9.3-15.8 3.5 4.3.1 13.2 0 15.8-3.5zm41.4 5.3c2.8.3 3-2.1 2.9-4.7H87c-.5 1.4-.9 2.9-1.1 4.7zm-14.6 2.9c.6 2 3.4-1.6 4.1.6-4.5 3.3-14.2 1.3-18.7 4.7 5.2-.1 18.7 1.2 20.4-5.8 2.7-1.4 7.3-.9 7.6-4.7-4.8 1.3-10.7 1.6-13.4 5.2zM7.2 67.9c3-1 10-3.2 7.6-5.8-2.3 2.1-5.9 3-7.6 5.8zm36.7-3.5c3.1.3 10.8.3 12.8-2.3-4.9 0-10 0-12.8 2.3zm10.5 13.4c-11.2-5.6-22.9-10.5-35.6-14H17c-3 5.5-5.4 11.7-5.2 20.5 7.1 4.4 16.3 6.7 25.7 8.8-.1-3.6 2.5-4.5 2.3-8.2-6.6-2-21.9.2-17.5-7.6 1-.3 3.4.7 3.5-.6-1.7 0-3-1.7-1.7-2.9 4.9 1 10.2 2 14.6 3.5 4.3 1.5 9.1 3.2 11.7 6.4-1.6 4-5.1 6.2-5.8 11.1 3.4.8 6.9 1.7 10.5 2.3.7-6.7 3.9-10.9 9.3-12.9-2.3-3.2-6.5-4.7-10-6.4zM38.1 65.5c-.7-.1-.6-.9-.6-1.7h-4.1c-.2 2 3.6 2.9 4.7 1.7zm8.1 1.2c3.3.5 15.7 0 14.6-2.9-3.1 1.4-11.9-.6-14.6 2.9zm-41.4 0c1 0 1.5-.4 1.7-1.2-.9 0-1.4.5-1.7 1.2zm5.9 1.7c1 0 1.5-.5 1.7-1.2-1 0-1.5.5-1.7 1.2zm-4.7 3c1.8-.5 3-1.7 4.1-2.9-2.1.2-3.7.9-4.1 2.9zm1.2 1.1c2.4.2 4.1-.2 4.1-2.3-2.2 0-3.4.9-4.1 2.3zm68.8 0c1.7 1.3 4.6-.2 4.7-2.3-2.6-.2-3.9.8-4.7 2.3zm-72.9 3c2.9.1 1.9-.9 1.7-3H3.1v3zm76.4.5c1.6 0 3.4-2.7 2.3-3.5-.3 1.6-2.4 1.5-2.3 3.5zm-71.2-.5h1.2c0-.7.7-.8.6-1.8H8.9c0 .8-.7.8-.6 1.8zm56.6-1.2c-.5-.5-1.7.4-1.8.6-.8 2.2 3 .4 1.8-.6zm-4.7 3.5c-1-.4-2.9-2.9-4.1-1.2 1 .5 3.3 2.5 4.1 1.2zm-33.8 0c2.3-.1 5.7 1.7 7.6 0-2.5.2-6.2-2.8-7.6 0zm44.9 3.5c.2-1.1 2.3-.5 1.7-2.3-.3-1.6-2.3-1.6-3.5-2.3 1.3 2.1-.1 3.2 1.8 4.6zM3.7 78.4h1.7v-1.2H3.7v1.2zm1.1 1.7c.3 2.5.6 4.9 2.9 5.3.8-.8-.1-2.8-.6-4.1.5-.6 2.2-.2 1.8-1.8-2-.4-2.2.9-4.1.6zm37.4 1.2c-5-.7-12.7-1.7-16.9-1.2 4.1.6 15 5.9 16.9 1.2zm26.2 1.8c1.4-1.4-1.9-1.5-1.8-.6.1-.1 2 .3 1.8.6zM52.1 99.4c-2-1.3-4.5-2.1-7.6-2.3.1 2.8 5.9 3 7.6 2.3z" opacity=".7" fill-rule="evenodd" clip-rule="evenodd" fill="#fff"/></svg>