<svg xmlns="http://www.w3.org/2000/svg" viewBox="0 0 167.4 136"><path d="M14.8 38.2c-1.4-2.9-2.5-5.2-3.3-6.8 10.8-6.6 20.7-11 32-10.9 10.9.1 21.9-.7 32.6 3.6 6.6-9 15-15.6 25.5-19.7 8.2-3.2 16.5-5.6 25.5-3.9 5.4 1 9.6 3.2 10.2 9.5 4.1 1.4 8 .6 12.1-.8.8 1.6 1.6 3 2.6 4.9 1.6-.1 3.4-.3 5.8-.5.4 1.3 1.1 2.8 1.4 4.3 3.1 15.7 4.8 31.5 5.6 47.5.7 12.4 1.5 24.8 2.2 37.2 0 .3-.2.6-.5 1.3-.9.1-2.1.6-3.1.3-4.6-1.1-9.1-2.2-13.6-3.7-7.5-2.6-14.5-1.2-21.6 1.6-6.7 2.6-12.4 6.4-17.3 11.6-2.2 2.4-3.8 5-4.3 8.3-.7 4.4-2.4 8.2-7.2 9.2-4.6 1-9.3-1.5-12.3-6.1-.3-.4-.5-.9-1.2-1.8-20.9-3-40.5 2.2-59.5 12.8-2.5-4.1-5.1-7.6-6.8-11.5C14.1 112 9.7 99.2 6.9 85.8 4.7 75.5 2.5 65.1.3 54.8c-.2-1-.2-2-.4-3.2 1.4-.7 2.7-1.3 4.1-1.9.1-.4.2-.9.2-1.4-.2-1.7-.6-3.3-.7-5-.1-2.4 1.1-3.6 3.6-3.9 2.2-.3 4.3-.6 7.7-1.2zM152.3 85c-.4.1-.7.2-1.1.3-.7-.8-1.8-1.5-2-2.4-.9-3.7-1.7-7.5-2.4-11.3-1.3-7.6-2.4-15.3-3.8-22.8-1.1-5.8-2.6-11.5-4-17.2-1.6-6.9-3.3-13.7-4.6-20.6-.7-3.9-3.2-5.6-6.7-6.6-4.4-1.2-8.6-.6-13 .1-12.8 2.1-23.4 8-32.2 17.4-2.8 2.9-4.2 5.9-2.3 9.9 1 2.1 1.3 4.5 1.8 6.8 2.1 10.9 4.3 21.8 6.2 32.7 1.2 6.8 2 13.6 3 20.5.7 4.4.9 8.9 3.1 13.1 15.9-13.9 33.2-23 55.8-19.8-1.1 1.8-1.8 3.1-2.6 4.5 2.8.7 5.6 1.5 9.3 2.4-2.1-26.6-2.3-52.4-8.8-77.7-3.3.2-6.1.3-8.9.5-.1.5-.2.8-.1 1.1 4.8 21.3 9.2 42.7 13.2 64.1.3 1.6.1 3.3.1 5zm-61.8 22.2c-.9-4.4-1.6-7.6-2.1-10.9-1.8-11.9-3.3-23.9-5.2-35.8-1.4-8.4-3.1-16.8-5.1-25.2-1.8-7.7-4.2-9.5-12.1-10.3-.8-.1-1.7-.1-2.5-.1-7.1-.2-14.1-.7-21.2-.4-7.6.3-15 2.2-21.7 5.9-3.8 2.1-4.3 3-3.4 7.3 1.6 7.5 3.2 15.1 5 22.6 1.4 5.9 3.2 11.6 4.7 17.5 2.4 9.4 4.7 18.9 7 28.3.3 1.1.8 2.1 1.2 3.2 1.8-.6 3.4-1.3 5-1.6 7.1-1.4 14.1-3 21.3-3.8 7.5-.9 15.1-1.3 22.4 1.7 1.9.6 3.9.9 6.7 1.6zm-.3 6.4c.4-2.5-1.2-3.3-2.8-3.7-3.6-.9-7.1-2-10.8-2.5-10.4-1.6-20.5.6-30.5 2.8-3.2.7-6.6 1.6-9.4 3.2-3.8 2.1-4 2.2-5.1-2.2-2.1-8.7-4.2-17.3-6.2-26C22.5 73.1 19.6 61 16.6 49c-.6-2.4-1.4-4.8-2.2-7.4-2.7.7-5.1 1.3-7.8 1.9 1.5 7.1 3 13.6 4.4 20.2 3.4 16.1 7.2 32.2 13.3 47.5 1.5 3.7 2.6 7.6 5.3 10.5 5.1-1.9 9.8-4.1 14.8-5.4 4.5-1.2 9.3-1.7 13.9-2.3 3.8-.4 7.7-.7 11.6-.7 6.6 0 13.5.2 20.3.3zm-1.9 6.7c.7 1.3 1.3 2.5 2 3.7 1.7 2.7 5.4 4.4 8.2 3.8 2.8-.6 4.3-2.9 4.7-6.9.1-1.3.1-2.9.8-3.8 2.3-3.1 4.7-6.1 7.5-8.8 2.4-2.3 5.3-4.1 7.9-6.2-2.5.4-4.7 1.2-6.6 2.5-4.7 3.3-9.2 6.8-13.8 10.1-2.7 1.9-5.2 3.9-9 3.4-10.2-1.5-20.4-2.1-30.6-.5-10.1 1.5-20.3 2.9-29.1 9-2.6 1.8-3.4 1.2-4.2-2.2-.2-.8-.5-1.6-.8-2.3C21.9 113 18 104 15.2 94.7c-2.7-9.1-4.3-18.6-6.4-28-1-4.5-2.2-8.9-3.4-13.8-1.8 2.3-2 2.4-1.5 4.7 2.6 11.8 4.9 23.7 8 35.4 2.3 8.7 5.5 17.2 8.8 25.7 1.8 4.6 4 9.1 7.5 12.2 19.1-9.5 38.8-14.6 60.1-10.6zm74.4-20.4c0-4.1.1-7.8 0-11.4-.3-7.7-.7-15.4-1.2-23.1-.6-8.9-1.1-17.8-2-26.6-.7-6.3-1.9-12.6-3.1-18.9-.4-2.2-1.8-2.9-3.3-2 .2 2.3.2 4.2.5 6 2 10.7 3 21.6 3.7 32.5.8 11.9 2.2 23.7 3.3 35.5.3 3.3-1.3 4.6-4.6 3.8-2.3-.6-4.5-1.6-6.8-2-3.5-.7-7.1-.8-11 .9 8.4 1.8 16.2 3.5 24.5 5.3zm-66.8 11.7c14.3-11.1 29.2-18.9 46.5-22.5-13.5-3.4-42.6 10.3-46.5 22.5z" fill="#fff" opacity=".7"/></svg>