<svg xmlns="http://www.w3.org/2000/svg" viewBox="0 0 67 80.1"><path d="M17.2 19.2c1.3 2.7 2.8 5.5 2.3 7.6-1.7 2.2-3.7-.5-5.9 0-7.2 8.5-5.3 20.1-8 30.2 3.9-6.4 13.9-7.4 18.6-2.8 3.1-3.3 10.3-7.6 14.7-6.7 1.3-1.4.4-3.7 1.6-5.6 2.6-4.3 8.9-6.7 13.1-5 0-4.3.4-9.8.5-15.8.1-7.7-1.9-17.1 7.2-21 3.8 1.7 8.4 10.7 3.6 13.3-2.1-1.4-1.8-4.4-3.3-6.6-1.8 1-2.6 4.2-3.1 7.2-.7 5-.6 8.9.1 15 .5 4.3-.2 8.1 4.1 9.2.4 1.5-.1 2.8.2 4.3 4.8 6.7 2.2 15.3-5.8 18.9-8.6 3.9-15.8-1.7-17.7-11.2-4.9 1.1-9.7 4.9-11 8.3C41.6 73.5 12 89.7 5.2 72.8-1.6 70.9 0 66.7.8 59.9c.4-3.4.9-6.3 1.4-9 1-5.3 1.5-13 3-17.5 1.7-5.1 4.7-11.2 9.9-14.6.5.8 1.4.3 2.1.4zm.6 6.1c-1-.8-.4-2.7-1.2-2.3-.2.9-1.1 3.2 1.2 2.3zm46-19.2c.3-.1.5-.3.8-.4-.1-.3-.3-.5-.4-.8-.2.1-.5.2-.8.4.2.2.3.5.4.8zM7.1 36.3c-.1-1.2.9-2 .8-3.3-.9.7-2 3-.8 3.3zm-1.8 9.2c-.4-2.5 2.3-5.7.7-7.6-.3 2.3-2.1 5.8-.7 7.6zm-.8 11.1c-.3-1.8 1.4-4.7 0-5.8.6 1.9-2.4 5.4 0 5.8zm-2.4 8c1.4-1.2 2.9-6.8 1-6.8 0 2.4-1.3 4.3-1 6.8zm5.7-6.2c.8-.9 2.6-1.5 2-2.9-.8.9-2.6 1.5-2 2.9zm3.1-.6c1-.4.9-1.2 1-1.9-1 .4-.9 1.2-1 1.9zm4.9-2.9c.3.7.7 1.2 1.2 1.4 1.1-.6 1-1.6 1.2-2.5-.8-.3-2.1.3-2.4 1.1zm3.7 1.6c1.2-.5 1.5-2.4 0-2 .4.8-.8 1.1 0 2zm26.1-13.3c1-.1 1.3-1.9.2-1.6.2.6-.3 1-.2 1.6zM10.3 68.3c2.6 6.2 10.3 6.1 13.5 2.6 2.6-2.8.7-10.2-2.9-12.7-1.4-.9-5.4-1.4-8 .5-2.9 2.2-4 6.2-2.6 9.6zM7.2 65c.2-1.1 1.1-.2 1.8-1.4-.3-.5-.5-1-.8-1.6-1.8.4-2.6 2.7-1 3zM43 49.8c1.8-1.2 1.2-3.3 1.4-5.1-1.4 1.4-1.3 3.3-1.4 5.1zm8.9-7.7c-7.8.8-7.5 10-2.2 14.2 9.9.2 10.3-12.6 2.2-14.2zM27 56.7c1.4-.8 2.2-1.9 2.4-3.1-1.1 1-2.5 1.8-2.4 3.1zM7.3 71.2c2.1-.6 1.3-3.9.2-4.5.1 1.6-1.1 2.7-.2 4.5zM3 70.4c.4-.2.6.1 1 0-.3-.6-.6-1.4-1.4-.8.2.3.3.6.4.8zm55.1-24.6c1-.4.9-1.2 1-1.9-.6.1-1-.2-1.8.4.3.5.6 1 .8 1.5zM26.3 60.4c-.1.7 0 1.5-1 1.9 2.6 4-1.1 7.6 1.3 10.5.6-2.2-.5-4.9 1.6-6.6-1.4-2.4-.3-4-.6-6-.4.3-.7-.2-1.3.2zM58.7 47c1.9 3.5-2.7 6.5-.4 9 .8-3.5 3.4-6.4 2.6-10.5-1 .4-.9 1.2-2.2 1.5zM13.4 75.6c.3-.1.5-.3.8-.4-.2-.5.2-.8-.2-1.4-.3.1-.5.3-.8.4.2.5-.3.8.2 1.4zm34.9-16.2c.7 2.5 1.7-.7 0 0zm5.8-1.9c1.9.5.5-2.1 0 0zm-31 18.1c1.1-.9 1.5-2.1 1.2-3.5-1.3.9-1.7 2-1.2 3.5zm36.5-19.8c.6-.3 1.4-.6.8-1.4-.3.1-.5.3-.8.4.2.4-.1.6 0 1zm-38.8 21c1.3-.6.9-1.7.6-2.7-1.1.6-1.6 1.4-.6 2.7zm34.9-17.2c.3-.1.5-.3.8-.4-.1-.3-.3-.5-.4-.8-.3.1-.5.3-.8.4.1.3.3.6.4.8zM18.6 78.3c.3-.1.5-.3.8-.4-.1-.3-.3-.5-.4-.8-.3.1-.5.3-.8.4.2.3.3.6.4.8z" fill-rule="evenodd" clip-rule="evenodd" fill="#fff" opacity=".7"/></svg>