<svg xmlns="http://www.w3.org/2000/svg" viewBox="0 0 82 253.8"><path d="M2.4 113.3c-.2 0-.4.1-.6.3 0-.7-.1-1.3-.3-1.7-.4-.9-.6-1.8-.6-2.5s.1-1.6.3-2.5c.6-2 1.2-4 2-5.7.8-1.9 1.7-3.7 2.8-5.5.4-.7.8-1.4 1.4-2 .4-.4.7-.6 1.1-.6 0-.9.1-1.5.3-1.8.2-.3.8-1 2-2.1.6 0 .9.2 1.1.6.2.4.5.7.8 1.1.2-.2.7-.5 1.4-.8-.4-.7-.6-1.3-.6-1.7 0-.2.1-.3.3-.3.9-.4 1.6-.8 2-1.4-.2-.6-.5-.7-.8-.3-.4.2-.9.7-1.7 1.4 0-.7.1-1.1.3-1.1.4-.6 1.1-1.2 2.2-2 1.1-.9 1.9-1.7 2.2-2.4.4-.7.7-1.7.8-3.2 0-.9.1-1.6.3-2-2.8-3.4-4.9-6.7-6.4-10.1.4-.6.9-.9 1.7-1.1-.2-.7-.5-1.1-.8-1-.4.1-.7 0-1.1-.1-.9-.7-1.5-1.6-1.8-2.5-.3-.9-.6-1.9-1-2.8-.4-.9-.5-1.7-.3-2.2v-.8c0-.9 0-1.4.1-1.5.1-.1.6-.1 1.5-.1.2.9.3 1.5.4 1.7.1.2.5.7 1.3 1.7-.4.4-.7.5-.8.3-.2-.2-.5-.2-.8 0 .4.6.7 1.1.8 1.7.2.6.6 1.1 1.1 1.7l.6-.6c.2-.4.3-.8.3-1.4 0-.6.1-1 .3-1.4-.9-1.5-1.4-2.4-1.4-2.7s.4-.8 1.1-1.5c.4.7.7 1.4 1.1 2 .4-.4.7-.6.8-.6l-1.7-3.4c.4-.4.5-.8.3-1.4-.2-.6-.2-1.1 0-1.7 0-.4 0-.7-.1-1.1-.1-.4-.1-.8-.1-1.4h.8c.6 0 .8-.2.8-.6-.6-.6-1-.9-1.4-1.1.7-.7 1.2-1.4 1.4-2v-1.7c0-.2-.1-.3-.3-.4-.2-.1-.4-.3-.6-.7-.2.6-.5 1-.8 1.3-.4.3-.6.6-.6 1 0 .2-.1.3-.3.3h-.6c.4-.6.2-1-.6-1.4-.4 0-.7.2-1.1.6v.8c.2.2.5.3.8.3.2 0 .3 0 .4-.1.1-.1.2-.1.4-.1-.4 1.3-.5 2.1-.3 2.2.2.2.8.2 2 0 0 .4-.1.7-.3.8l-.8.8c-.4.6-.7 1.1-.8 1.7-.2.6-.1 1.2.3 2 0 .2 0 .4.1.6.1.2.1.4.1.6.4.7.3 1.2-.3 1.4-.2.2-.5.7-.8 1.4-.4-.2-1-.3-2-.3-.6-.7-1-1.4-1.3-2.1-.3-.7-.7-1.3-1.3-2.1-.2-.2-.3-.7-.3-1.7 0-.2.2-.7.6-1.4-.7-.6-1.1-1.2-1.1-2 0-.7.1-1.5.3-2.2.6-.2.8-.1.8.3.4.4.6.7.6 1.1.4.4.7.7 1.1.8v-1.1c.2-.2.3-.2.3 0 .6 0 .7-.3.6-.8l-.8.8c-.4 0-.6 0-.7.1.1 0-.1.1-.2.1.4-.9.4-1.5 0-1.7-.6-.6-.8-1.3-.8-2.2 0-.6-.1-1-.3-1.4-.4-.7-.6-1.9-.6-3.4.2-1.1.3-2.2.4-3.2.1-1 .2-2 .4-2.9l.3-.3c.9-.4 1.4-.7 1.4-.8 0-.2-.4-.7-1.1-1.4.6-4.1 1.8-7.8 3.6-11.2.4-.9 1.3-1.5 2.8-1.7 0-.4-.1-.6-.4-.6-.3 0-.5-.2-.7-.6L15 11v.6h.3c.2-.2.4-.3.6-.4.2-.1.4-.3.6-.7l-.8-.8c.9-1.3 2-2 3.1-2.2l.3-.3c.6-.9 1.2-1.5 2-1.8.5-.4 1.3-.8 2.3-1.4 0 .4 0 .7.1.8.1.2 0 .5-.1.8 0 .4-.1.7-.3 1-.2.3-.4.6-.6 1 .6 0 1 0 1.4.1.4.1.7.1 1.1.1.4-.4.4-.7 0-.8-.4-.2-.5-.5-.3-.8.9-.9 1-1.8.3-2.5 1.3-1.1 3.7-2 7.3-2.5.2.2.3.4.4.6.1.2.2.4.4.6.4-.2.6-.5.6-.8 0-.6.2-.8.6-.8.2 0 .3.3.3.8v.3c0 .6.3.7.8.3.2 0 .3-.1.3-.3.3.2.7.7 1.1 1.1.4.5.7.9 1.1 1.3.4-.2.6-.6.6-1.1.2-.4.1-.7-.3-1.1-.4-.2-.7-.4-1-.6-.3-.2-.6-.4-1-.6.6-.7 1.5-.9 2.8-.5.6 0 1-.1 1.4-.3.6-.2 1.2-.1 2 .3.6.4 1.4.7 2.5 1.1.2.4.3.8.3 1.4.7-.2 1.1-.6 1.1-1.1-.2-.4-.3-.7-.4-.8-.1-.2-.3-.5-.7-.8h1.4c.7.2 1.5.3 2.2.3.7 0 1.5.1 2.2.3.6.2 1.1.3 1.5.4.5.1.9.3 1.3.7.4.9.9 1 1.7.3.4-.2.7-.2.8-.1.2-.1.5-.1.9-.1.4.2.8.3 1.4.4.6.1 1 .2 1.4.4 1.1.6 2.3 1.1 3.5 1.7 1.2.6 2.4 1.3 3.5 2.2l.6.6-.9 1.7c-.4.7-.2 1.2.6 1.4.2-.2.3-.4.4-.6.1-.2.2-.4.4-.6.6-.6 1.1-.6 1.7 0 .4.4.7.8 1.1 1.3.4.5.4 1.1 0 1.8 0 .6.3 1.1.8 1.7l.6.6h1.1v.8l-.3.6c.2.4.4.5.6.4.2-.1.4 0 .6.1.4 0 .6.1.6.3.2.4.3.8.3 1.3s.1.9.3 1.3c.2 1.3.4 2.6.6 3.8.2 1.2.4 2.6.6 4.1.2.6.3 1.2.4 1.8.1.7 0 1.3-.4 1.8 0 .4 0 .6.1.7.1.1.1.2.1.4 0 .4 0 .7.1 1 .1.3.1.6.1 1 .2.9-.1 1.5-.8 1.7 0 .4.1.6.3.6.2 0 .4.1.6.3v1.1c-.9.4-1.5.2-1.7-.4-.2-.7-.6-1.1-1.1-1.3-.4.4-.6.7-.6 1.1.2.7.3 1.3.4 1.5.1.3.5.9 1.3 1.8.7-.4 1.2-.6 1.4-.6.2.4.1.9-.3 1.7-.4.4-.6.7-.6.8.2.6-.1 1-.8 1.4-.4.2-.7.3-1 .3s-.6.1-1 .3c-.2-.2-.4-.3-.6-.4-.2-.1-.4-.2-.6-.4l-.8-.8c-.7.2-1.5.3-2.2.3-.7 0-1.4-.5-2-1.4v-1.4c0-.2 0-.3-.1-.4-.1-.1-.1-.3-.1-.7-.7-.6-1.2-.7-1.4-.6-.9.6-1.1 1.2-.6 2 .4.4.8.8 1.3 1.4.5.6.9 1 1.3 1.4 0 .2 0 .3.1.4.1.1.1.2.1.4l-.3.3h-7.9c-.4-.4-.3-.7.1-1.1.5-.4.5-.7.1-1.1-.4.2-.7.5-1.1.8-.6 0-1.1-.2-1.5-.6-.5-.4-1.1-.4-1.8 0-.6-.9-.7-1.9-.6-2.8v-1.4c0-.4 0-.7.1-.8.1-.2.1-.4.1-.6-.7-1.3-1-2.6-.8-3.8.2-1.2.2-2.5 0-3.8v-3.1c-.7-3.7-3.1-6.5-7-8.4-.4 0-.7-.2-1.1-.6h-.6c-.2 0-.3-.1-.3-.3-.9.4-1.8.5-2.5.4-.7-.1-1.6-.1-2.5-.1-.6.2-1.1.3-1.7.3-.6 0-1.1.1-1.7.3-.9.2-1.9.7-2.8 1.7l-.8.8c-2.4 1.9-3.6 4.8-3.6 8.9-.2 1.3-.2 2.5-.1 3.6s.1 2.3.1 3.6v1.4c-.2.6-.5.9-1 1.1-.5.2-.6.5-.4.8.2.2.4.3.6.3.2 0 .4.1.6.3.2.9.3 1.9.3 2.9v3.2c0 .7-.2 1.9-.6 3.4-.2 0-.3 0-.3-.1s-.1-.1-.3-.1H28c-.4-.4-.9-.6-1.7-.6-.4.4-.7.4-1.1 0-.4-.4-.6-.4-.7-.1-.1.3-.3.4-.7.4.2.6.5 1 .8 1.3.4.3.5.7.3 1.3.2.2.4.3.6.3.9.7 1.5 1.3 1.7 1.5.2.3.3 1.1.3 2.4.4.4.7.4.8 0 .2-.4.5-.4.8 0 .2.4.4.6.7.6.3 0 .6.1 1 .3 0 .2 0 .3.1.4.1.1.1.2.1.4.6.7.6 1.5 0 2.2-.4.7-.6 1.2-.7 1.4-.1.2-.1.7-.1 1.4-.4.4-.8.7-1.4.8-.6.2-1 .5-1.4.8-.6.4-.8.8-.8 1.4 0 .4 0 .7-.1 1-.1.3-.1.6-.1 1 0 .6.2.8.6.8.4 0 .6-.3.6-.8v-2.5c1.3 0 2 .3 2 .8.2.6.5 1.1.8 1.7.4.6.5 1.3.3 2.2l.6 1.1c.4-.2.7-.4 1.1-.6.4-.2.7-.4 1.1-.6-.6-1.5-1.2-2.6-2-3.4.4-.6.7-1.1 1.1-1.7.4-.6.4-1.3 0-2.2l-1.1-.6v-.3c.4-.4.7-.8.8-1.4.2-.6.5-1 .8-1.4.7 1.1 1.2 2 1.4 2.5.4.4.7.7.8 1.1.2.4.3.8.3 1.4v.6c.4.4.6.7.7 1.1.1.4.2.7.4 1.1 0 .6.3.8.8.8h.3c.2-.2.4-.3.6-.3.7.6 1.3 1.3 1.7 2.2.2.6.5.9 1 1.1.5.2.7.7.7 1.4-.4-.2-.7-.3-1-.3s-.6-.1-1-.3c-.2.4-.3.7-.3 1 0 .3-.1.6-.3 1-.9.4-1.4.7-1.5.8-.1.2 0 .7.1 1.4.7-.7 1.4-1.2 2-1.4 0 .6.1.9.3 1.1 0 .2 0 .4.1.6.1.2.1.4.1.6-.6.6-1 .9-1.4 1.1-.4-.2-.7-.3-.8-.3-.2 0-.4-.1-.6-.3-.4.7-.2 1.5.6 2.2.4 0 .7-.1 1-.3.3-.2.6-.4 1-.6.4 0 .7.1.8.4.2.3.5.6.8 1v.3c-.4.4-.4.7-.1 1.1.3.4.4.7.4 1.1v1.1c.4 0 .9.2 1.7.6.6.2.9.6 1.1 1.1.7-.4.9-1 .6-2-.4-.4-.6-.7-.7-.8-.1-.2-.3-.5-.7-.8-.2-.6-.1-.9.3-1.1 1.5.7 2.6 1.4 3.4 2 .2-.2.2-.5 0-.8-.2-.2-.3-.4-.4-.6-.1-.2-.2-.4-.4-.6v-.8c.2-.2.5-.2.8 0 .4.4.6.4.7 0 .1-.4.3-.6.7-.6 1.1.7 2 1.4 2.5 2v-.3c-.4.2-.7.3-1.1.3-.2 0-.7-.2-1.4-.6-.2.6-.2 1-.1 1.4.1.4.1.8.1 1.4 1.5.4 2.5 1.1 3.1 2.2l1.7-1.7c.4.4.7.7.8 1.1-.4.4-.8.7-1.3 1.1-.5.4-.5 1-.1 2-1.1-.7-1.8-1.1-2-1.1-1.3-.2-2-.8-2-2-.4-.4-.7-.6-.8-.6-.2.2-.3.4-.3.6-.2.4-.3.9-.3 1.7.2.4.4.6.7.6.3 0 .6.1 1 .3.2.2.3.4.4.7.1.3.3.5.7.7.7.4 1.4.4 2 .1l2-1c-.2-.7.2-1.6 1.1-2.5.4.4.7.6.8.7.2.1.5.3.8.7-.4.4-.7.7-1.1.8-.3.7-.5 1.1-.5 1.7 0 .4-.1.7-.3 1.1-.2.4-.2.7 0 1.1.6 0 .6.3 0 .8-.2.4-.2.6-.1.7.1.1.1.3.1.7v.6h-.6c-.4-.4-.8-.6-1.4-.6 0-.6 0-1.1.1-1.5.1-.5 0-1-.4-1.5-.7-.2-1.2 0-1.3.6-.1.6-.3.9-.7 1.1-.2 0-.3 0-.4-.1-.1-.1-.3-.1-.7-.1-.4.2-1 .1-2-.3-.4-.2-.8 0-1.4.6 0 .6.2.8.6.8.6-.2 1.4-.1 2.5.3.6-.4 1.1-.5 1.5-.3.5.2.9.5 1.3.8.2-.2.5-.3.8-.3.2.2.3.3.3.4 0 .1.1.2.3.4.7.6 1 1.2.8 2 .9.4 1.6.6 2 .7.4.1 1 0 2-.4 0-.4 0-.7.1-1.1.1-.4-.1-.7-.7-1.1 0-.2.1-.4.3-.6.4-.6.5-1.2.3-2-.2-.2-.3-.4-.3-.6v-.3c.2.2.4.3.6.3.2 0 .5.1.8.3 0-.4 0-.7.1-1 .1-.3.1-.6.1-1 .4.6 1 1.3 2 2.2l2.5 2.5.3.6c.7.4 1.2.8 1.3 1.3.1.5.2 1 .4 1.5v1.1h.3c0-.4-.1-.7-.3-1.1.9.2 1.7.6 2.2 1.3.6.7 1 1.3 1.4 1.8.4.6.3 1.1-.3 1.7-.4.6-.5 1.1-.3 1.7.2.6.4 1 .6 1.4.2.4.7.4 1.7 0 .4.4.6 1 .6 2-.4.2-.8.2-1.3.1s-.6.2-.4 1c.4 0 .8 0 1.3-.1s1 0 1.5.1c.7.4 1.3.9 1.7 1.7l.8 1.7c-1.1.2-1.7.9-1.7 2.2.6 0 1.1-.2 1.5-.7.5-.5 1.1-.4 1.8.1.9 2.4 1.7 4.6 2.2 6.4-.4.4-.6.4-.6.1 0-.3-.1-.4-.3-.4h-1.1c-1.3 0-2.3-.4-3.1-1.1l-.8-3.4c-.2 0-.3 0-.4-.1-.1-.1-.3-.1-.7-.1.4-1.5.4-2.4.1-2.7-.3-.3-1.2-1-2.7-2.1 0-.4-.2-.9-.6-1.7-.4-1.1-.6-1.8-.6-2-.7.2-1.1.7-1.1 1.4.4 1.3.7 2.1 1.1 2.5.2.6.2 1.1 0 1.7v.8c.6 1.1.2 2-1.1 2.5.2.2.3.5.3.8.2.4.3.7.3 1s.3.5.8.7c-.2.2-.3.4-.3.6v.3c-.9-.2-1.5 0-1.7.6-.2.6-.5 1-.8 1.4-.2 0-.3.2-.3.6.4.7.7 1.4.8 2-.4.6-.9 1.6-1.7 3.1h-2c.7-.4 1.1-.8 1.1-1.4l-1.1-.6c-.2 0-.3-.1-.3-.4s-.3-.3-.8-.1c.2.4.4.8.6 1.3.2.5.4.9.6 1.3l.3.6c0 .9.4 1.6 1.1 2l.3.6c1.1 0 1.7-.4 1.7-1.1-.2-1.3.4-2.6 1.7-3.9-.2-.4-.3-.8-.3-1.3s-.2-1-.6-1.5v-.3c0-.2.1-.4.3-.6 0-.2.2-.3.6-.3l.3.3c0 1.3.3 2.8.8 4.5.4.2.7.2 1.1 0 .4-.2.7.1 1.1.8 0 .4-.1.7-.3 1.1.4.2.7.1 1-.1.3-.3.6-.3 1-.1.6.6.9.8 1.1.8.2 0 .7.1 1.7.3l1.7.8c.6-.2.9-.5 1.1-1 .2-.5.5-.9.8-1.3 0-1.1-.5-2.1-1.4-3.1-.6.4-1.2.6-1.8.7-.7.1-1 .6-1 1.5-.9 0-1.7-.3-2.2-.8-.4-.4-.4-.7 0-1 .4-.3.4-.6 0-1l.6-1.1c0-.6-.3-.8-.8-.8l-.6-.3c.2-.4.1-.7-.1-.8-.3-.2-.5-.4-.7-.6-.7-.7-.8-1.5-.3-2.2.2-.2.5-.7.8-1.4.4.4.6.7.7 1 .1.3.1 1.2.1 2.7.7.6 1.4 1.2 2 1.8.6.7 1.3 1.3 2.2 1.8.2-.4.3-.7.3-1.1.2-.4.3-.8.3-1.4.4.4.7.7 1.1.8.4.2.7.5 1.1.8.2.2.3.4.3.6 0 .4 0 .7-.1.8-.1.2-.1.4-.1.6 0 .4.1.6.3.7.2.1.3.2.3.4.2.4.3 1 .3 2 0 .4 0 .6-.1.7-.1.1 0 .3.4.7.4.4.4.8 0 1.4-.4.2-.6.4-.7.6-.1.2-.3.5-.7.8v1.4c-.2.2-.7.3-1.7.3.2-.4.3-.7.3-1.1.2-.6 0-.8-.6-.8-.2-.2-.6-.1-1.1.3l-2.8-2.8c-.4 0-.6.3-.6.8.4.7.7 1.4 1 2.1.3.7.6 1.4 1 2.1-.7.4-1.2.7-1.4.8-.2.2-.3.5-.3.8 0 .2.1.3.3.3l.3.3H76c0-.4 0-.7.1-.8.1-.2.1-.5.1-.8l1.1-.6c.2.9.2 1.5.1 1.8-.1.3-.4.8-1 1.5v.6c.2.6.6.8 1.1.8.2-.2.3-.6.3-1.1.2-.2.3-.4.3-.6.2 0 .5.2.8.6.2.2.4.3.6.3l.3-.3c.2-.4.2-.8 0-1.3s-.3-.9-.3-1.3c-.2-.4.1-.7.8-.8.4.6.4 1.2.1 2-.3.7 0 1.3.7 1.7l-.8 1.7c0 .4 0 .7.1 1 .1.3 0 .6-.1 1 0 .2.2.7.6 1.4-.4 0-.7.1-.8.3-.4.4-.9 1.1-1.7 2.2-.4.4-.7.7-1 .8-.3.2-.6.5-1 .8.4 1.7.3 3-.3 3.9h-2c-.4-.6-.3-.9.1-1.1.5-.2.7-.6.7-1.1-.4-.9-.8-2-1.3-3.1s-1.4-1.9-2.9-2.2c0 .4.2.7.6 1 .4.3.6.6.6 1s.1.7.3 1c.2.3.4.6.6 1 .4.4.6 1.1.6 2.2 0 .7-.2 1.3-.6 1.7-.4 0-.7.2-1.1.6.2.4.3.7.4 1.1.1.4.2.7.4 1.1.4-.2.6-.4.8-.6.2-.2.5-.3.8-.3.7 0 1.3-.1 1.7-.3.4.7.4 1.4 0 2.1-.4.7-.5 1.4-.3 2.4-.9-.4-1.5-.6-1.7-.6-.2 0-.5.3-.8.8 0 .4.1.5.3.4.2-.1.4 0 .6.1.4.6.4 1 0 1.4 0 .7-.3.9-.8.6l-1.1-1.1h-.6c0 .2 0 .3-.1.3s-.1.1-.1.3c.2 0 .3.2.3.6.6.4 1.1.4 1.7 0-.6 2.1-1.7 3.7-3.4 5-.4.4-.7.7-1 1.1-.3.4-.6.7-1 1.1-.4-.2-.7-.3-.8-.3-.2 0-.4-.1-.6-.3l-.3.3c-.4 1.5-.9 2.6-1.7 3.4-.4.4-.6.8-.7 1.4-.1.6-.2 1-.4 1.4h-.8c-.6.7-.7 1.4-.3 2 .4.6.6 1.1.7 1.7.1.6.3 1.2.7 2 .7-.4 1.2-.6 1.4-.6.9.9 1.8 2 2.5 3.1s1.4 2.2 2 3.4c.2.4.3.7.3.8 0 .2.1.5.3.8.2.6.3 1.1.3 1.7 0 .6.5.9 1.4 1.1l.6 1.1c1.1 2.8 2 5.8 2.5 8.9l-.8.8c0 .4.1.5.3.4.2-.1.4 0 .6.1l.3.3c.6 3.2.8 6.1.8 8.9v7.5c0 1.3-.1 2.3-.3 3.1 0 1.3-.3 2.5-.8 3.6.4.7.5 1.4.3 2-.2.6-.4 1.1-.6 1.7 0 .4 0 .7-.1.8-.1.2-.1.5-.1.8-.2 0-.7-.2-1.4-.6 0 .4 0 .6-.1.7-.1.1-.1.2-.1.4.2.4.4.7.6 1 .2.3.4.6.6 1-.2.2-.3.4-.3.6 0 .2-.1.4-.3.6l-.6-.6c-.4-.9-.8-1.5-1.3-1.8-.5-.3-1.3-.3-2.4-.1-.4.7-.7 1.4-.8 2-.2.6-.5 1.2-.8 2l.3.3c.9-.2 1.7.2 2.2 1.1h.3c.4-.2.5-.4.4-.7-.1-.3 0-.6.1-1 .4 0 .6.1.6.3.2.2.3.4.4.6.1.2.3.5.7.8-.7 1.5-1.5 3-2.4 4.5-.8 1.5-1.9 2.9-3.2 4.2-.6.7-1.6 1.7-3.1 2.8-1.5.9-3 1.8-4.6 2.5-1.6.7-3.2 1.3-4.9 1.7-.4 0-.6-.2-.6-.6 0-.4 0-.7.1-.8.1-.2 0-.5-.1-.8-.2-.2-.3-.7-.3-1.7.2-.4.2-.7.1-.8-.1-.2-.3-.7-.7-1.4h-.3c.2.9 0 1.7-.4 2.2-.5.6-.5 1.3-.1 2.2-.7 1.1-1.4 2-2 2.8-.9.2-1.9.3-2.8.4-.9.1-1.9.2-2.8.4h-1.1c0-1.5-.1-2.6-.3-3.4-.6-.2-.8-.1-.8.3-.6.6-.7 1.6-.3 3.1-.6.2-1.2.3-1.8.3-.7 0-1.3.1-1.8.3-.2 0-.4-.1-.6-.3-.2-.2-.5-.4-.8-.6v-3.1c-.2-.7-.7-.9-1.4-.6 0 .9-.1 1.7-.3 2.2-.2.4-.4.7-.6.8-.2.2-.4.5-.6.8-.6-.2-.7-.4-.6-.7.2-.3.2-.6 0-1-.2-.2-.3-.7-.3-1.4-.9.4-1.4.7-1.5.8-.1.2 0 .8.1 2-.6.2-.9.1-1.1-.3-.2-.4-.5-.7-.8-.8-.2 0-.3.1-.4.3-.1.2-.2.3-.4.3h-1.7c-.2 0-.3-.1-.3-.3-.4-.7-1.1-1.1-2.2-1.1h-2.5c-1.7-.2-2.4-1.2-2.2-3.1.4-.4.5-.7.3-1.1 0-.2-.1-.3-.3-.3-.2 0-.3.1-.3.3.2.2.3.6.3 1.1h-2c-.2.2-.3.3-.3.4 0 .1-.1.2-.3.4-.6-.2-1.2-.5-2-.8.4-.7.6-1.2.6-1.4 0-.4 0-.7.1-1 .1-.3.1-.6.1-1V243c.4.4.6.8.6 1.4v.3-.3c.6 0 1-.3 1.4-.8.2.7.7 1.3 1.4 1.7.7 0 .9-.2.6-.6 0-.6-.3-1.1-.8-1.7-1.3-.4-1.5-.8-.6-1.4 0-.4.2-.6.6-.6l1.1.6c.4-.7.6-1.2.6-1.4 0-.2-.2-.7-.6-1.4.7-.4 1.1-.7 1.1-.8 0-.2-.2-.7-.6-1.7-1.1.4-1.9 1-2.4 2-.5.9-.9 1.9-1.3 2.8-.7-.4-1.3-.3-1.7.3l-.6-.6c-1.1.4-2 .5-2.5.3-.4-.7-.4-1.5-.1-2.2.3-.7.3-1.5.1-2.2-.2-.4-.6-.4-1.1 0 0 .2 0 .4.1.6.1.2.1.4.1.6-.4.2-.7.1-.8-.1-.2-.3-.4-.4-.6-.4-.4 0-.6.1-.6.3v1.1c0 .4-.2.7-.6 1.1-.2.2-.2.4 0 .6.2.2.4.3.6.3.6 0 1.1.5 1.7 1.4l1.4 1.4c0 .4 0 .6-.1.7-.1.1-.1.2-.1.4l.6.3c.2-.2.3-.3.3-.4 0-.1.1-.2.3-.4.6-.2.8 0 .8.6v2c-.4.4-.9.4-1.7 0-.9-.4-1.4-.9-1.4-1.7 0-.9-.4-1.5-1.1-1.7-.2 0-.6-.3-1.1-.8-.4-.6-.7-1.1-1-1.7-.3-.6-.6-1.1-1-1.7L6 234.5c0-.2 0-.3-.1-.4-.1-.1-.1-.3-.1-.7l1.1-.6c0-.6-.2-.9-.6-1.1-.4-.2-.7-.5-1.1-.8-.2-.4-.3-1-.3-2 0-.7.4-1.1 1.1-1.1.6-.4.9-.6 1.1-.7.2-.1.5-.6.8-1.5h-.5c-.4.4-.8.6-1.4.7-.6.1-1.1.3-1.7.7-.2-.7-.3-1.4-.3-2 0-.6-.1-1.1-.3-1.7v-6.1c0-2-.1-4.1-.3-6.1 0-1.3.2-2.2.6-2.8.2-.2.3-.6.3-1.1v-1.4c0-.9.6-1.6 1.7-2 .4-.2.8-.3 1.3-.3s.9-.1 1.3-.3c.7 0 1.2.4 1.4 1.1.4.2.7 0 .8-.4.2-.5.5-.6.8-.4.4.2.7.2 1 0 .3-.2.6-.2 1 0l-.8 1.7c0 .7-.1 1.3-.3 1.7-.2.4-.7.9-1.4 1.7-.7.7-1 1.6-.8 2.5.6 0 .6.3 0 .8-.4.4-.5.8-.3 1.4.2.6.1 1.1-.3 1.7-.2.4-.2.7 0 1.1.2.4.5.7.8 1.1h.8c.4-.6.3-1.1-.1-1.5-.5-.5-.7-.9-.7-1.3s.1-.5.4-.4c.3.1.6 0 1-.4-.2-.4-.3-.6-.4-.7-.1-.1-.2-.3-.4-.7l1.1-1.1c.4.2.6.3.7.3.1 0 .3.1.7.3.4.7.5 1.2.3 1.4 0 .7.1 1.3.3 1.7.7 1.3.7 2.6-.3 3.9-.4-.4-.6-.7-.6-.8-.4-.6-.7-.7-1.1-.6-.2 0-.3.4-.3 1.1 0 .4.1.7.3.8.2.4.7.9 1.4 1.7.6-.6 1-.9 1.4-1.1 1.1.7 1.8 1.8 2 3.1 0 .2.2.3.6.3-.2.4-.4.7-.6.8-.2.2-.4.5-.6.8.4.4.7.6.8.6-.2.4-.3.7-.3 1.1 0 .4-.2.7-.6 1.1-.7.7-.9 1.6-.6 2.5 0-.2 0-.3.1-.3s.1-.1.1-.3c.6.7.9 1.5 1.1 2.2 1.1-.7 1.9-1.2 2.2-1.4.2.2.3.3.3.4 0 .1.1.2.3.4.4.4.7.4 1.1 0 0-.7-.4-1.9-1.1-3.4 0-.4.1-.6.4-.6.3 0 .2-.2-.1-.6-.4 0-.7.1-1.1.3-.4.2-.7.2-1.1 0 .2-.4.4-.7.6-1.1.2-.4.6-.6 1.1-.6h.4v-.8c-.4-.2-.7-.5-1.1-.8-.4-.4-.8-.6-1.4-.6v-.8c0-.6-.3-1.3-.8-2.2-.6-.9-.7-1.9-.3-2.8.4-.9.4-1.7.1-2.4-.3-.7-.5-1.4-.7-2.4-.4-.6-.8-.8-1.4-.8h-.8V210l-1.1-1.1c.7 0 1.3-.2 1.5-.7.3-.5.6-.9 1-1.3h-.3c.9-.6 1.3-1.2 1.1-2-.2-.4-.3-.6-.3-.7 0-.1-.1-.3-.3-.7.6-.4 1.1-.5 1.5-.4.5.1 1 .1 1.5.1 0 .7.1 1.3.3 1.7.4.2.7.3.8.3.2 0 .4.1.6.3.4 0 .6-.1.6-.3.4-.7.7-1.4.8-2 .9 0 2 .3 3.1.8.7 0 1.1.5 1.1 1.4.2.7.3 1.4.4 2 .1.6.2 1.2.4 2v6.1c0 1.7-.3 2.9-.8 3.6 0 .2 0 .4.1.6.1.2.1.5.1.8.9 2.6.7 4.8-.8 6.4-.6.6-.6.9 0 1.1.6 0 1-.2 1.4-.6.2 0 .3 0 .3.1s.1.1.3.1c0 .4 0 .6.1.7.1.1.1.3.1.7.7 1.5 1.5 2.6 2.2 3.4l.8.8c-.4 1.7-.5 2.7-.4 2.9.1.3.5.6 1.3 1 0-.4.2-1.1.6-2.2 1.1.4 2.6.7 4.5 1.1.7.2 1.5.2 2.2.1.7-.1 1.6-.1 2.5-.1 0 .9.1 1.6.3 2 .4.4.6.3.6-.3v-1.4c.6-.2 1.3-.3 2.2-.3v.8c0 .4.2.6.6.6.4 0 .6-.2.6-.6v-1.1c5.4-2.4 8.2-6.3 8.4-11.7.9-.2 1.9-.2 2.8 0l.3-.3c-.2-.2-.3-.4-.4-.6-.1-.2-.2-.4-.4-.6.2-.4.5-.7.8-1.1-.2-.2-.3-.3-.3-.4 0-.1-.1-.2-.3-.4-.7-.4-1.3-.2-1.7.6 0 .2-.1.4-.3.6-.2-.2-.3-.7-.3-1.7V213c0-1.3 0-2.6-.1-3.8-.1-1.2-.2-2.5-.4-3.8 0-1.1.1-1.8.3-2-.6-.7-.9-1.4-1.1-2.1-.2-.7-.5-1.4-.8-2.4-.6-1.7-1.2-3.3-2-4.9-.7-1.6-1.6-3.1-2.5-4.6-.7-1.1-1.5-2.2-2.2-3.2-.7-1-1.6-2.1-2.5-3.2-.6-.6-.6-1.3 0-2.2.2.2.4.3.6.4.2.1.4.2.6.4l.3-.3v-.8c0-.4 0-.7-.1-1-.1-.3-.1-.6-.1-1 0-.2 0-.4.1-.6.1-.2.1-.5.1-.8-.6-.2-.9-.1-1 .3-.1.4-.3.7-.7.8 0-.6-.1-.9-.3-1.1-.2-.2-.4-.3-.6-.4-.2-.1-.4-.3-.6-.7-.4-.7-.5-1.4-.3-2 0-.4 0-.7.1-1 .1-.3.1-.6.1-1 0-.2-.3-.5-.8-.8-.4-.4-.6-.2-.6.6-.2.2-.3.5-.3.8-.6-.6-.9-1-1.1-1.4-.4.4-.6.7-.6.8 0 .4.2.7.6 1.1.7 0 1.2.3 1.3.8.1.6.2 1 .4 1.4.2.2.3.3.3.4 0 .1.1.2.3.4-.4.4-.7.5-1 .4-.3-.1-.6-.2-1-.4-.7 0-1.4.1-2 .3l-1.4-1.4c-.6-.6-.7-1.3-.6-2.2 0-.4-.2-.6-.6-.6-.6 0-.7.2-.3.6 0 .2-.1.3-.3.3-.7-.4-1.1-.8-1.1-1.4 0-.4 0-.7.1-1 .1-.3 0-.6-.4-1-.4-.7-.5-1.4-.3-2 .2-.6.4-1.2.6-2 .2 0 .3-.1.3-.3.6.4 1.2.9 2 1.7.4.2 1.1.7 2.2 1.4l.7-.7c.3-.3.7-.3 1.3-.1.4-.2.6-.3.7-.4.1-.1.3-.2.7-.4l.8.8c-.6.4-.7.7-.6 1.1.2.4.7.7 1.4 1.1.2.2.4.3.6.3.6 0 .9-.1 1.1-.3v-.8c-.2-.4-.3-.6-.4-.7-.1-.1-.2-.3-.4-.7-.4.2-.7.3-.8.3-.2 0-.5.1-.8.3v-.3l.8-.8c-.4-.4-.7-.7-.8-1-.2-.3-.4-.6-.6-1-.4.2-.7.4-1.1.6-.4.2-.7.4-1.1.6-.7-.4-1.2-.7-1.4-1.1.2 0 .3 0 .4.1.1.1.3 0 .7-.1.4 0 .7-.1.8-.3.4-1.3.4-2.2 0-2.8-.6 0-1 .1-1.3.4l-1 1c0 .4 0 .7.1.8.1.2.1.5.1.8h-1.4c-.2-.2-.3-.4-.4-.7-.1-.3-.3-.6-.7-1-.2-.4-.3-.7-.3-1 0-.3-.1-.6-.3-1-.4-.7-.8-.9-1.4-.6-.7.4-.9.8-.6 1.4.2.4.4.6.6.7.2.1.5.3.8.7 0 .7-.4 1.1-1.1 1.1-.4 0-.7.4-1.1 1.1 0 .4-.2 1.3-.6 2.8.2.4.4.7.7.8.3.2.2.6-.1 1.1-.7-.2-1.4-.7-2-1.7.6-.7.7-1.4.3-2-.4-.6-.7-1.2-.8-2 0-.6-.2-.7-.6-.3-.2 0-.3.2-.3.6l.6 1.1c0 .2 0 .3-.1.4-.1.1-.1.3-.1.7-1.1 0-1.7-.4-1.7-1.1-.2-.7-.7-1.7-1.4-2.8v-1.4c.6.6 1 .9 1.4 1.1h.3c0-.9 0-1.8-.1-2.5s-.6-1.4-1.5-2c-.9.4-1.5.9-1.7 1.5l-.6 2.1c-.2.2-.3.2-.3 0-.2-.2-.3-.4-.4-.6-.1-.2-.2-.4-.4-.6-.2-.2-.4-.3-.6-.3-.2 0-.5-.1-.8-.3-.4-.4-.7-.7-.8-1.1-1.3-1.5-2.6-2.9-3.9-4.3-1.3-1.4-2.5-2.8-3.6-4.3-.2-.4-.3-.7-.3-.8 0-.2-.1-.4-.3-.6.4 0 .7.1.8.3l.3-.6c.4-.7.2-1.1-.6-1.1-.4 0-.6.3-.6.8v.6l-.6-.4c-2.1-3-3.8-6.1-5.2-9.2-1.4-3.2-2.5-6.5-3.2-10.1v-1.4c.4-.4.5-.6.3-.7-.2-.1-.4-.2-.6-.4-.2 0-.3-.2-.3-.6-.2-.7-.3-1.5-.4-2.2-.1-.7-.2-1.6-.4-2.5l1.1-.6c.4-.7.3-1.2-.3-1.4-.7-.6-.8-1.1-.3-1.7v-.2c-.6-.4-.8-.8-.7-1.4.1-.6.1-1 .1-1.4.4-.6 1.1-.8 2.2-.8v-1.1c.2.2.3.3.4.3.1 0 .2.1.4.3v-.3c-.2 0-.3 0-.4-.1.1-.2 0-.2-.2-.2zm.6-6.2c0-.6-.2-.8-.6-.8-.2 0-.3.1-.3.3 0 .4.2.7.6.8.2 0 .3-.1.3-.3zm.2 16.2c0-.2-.1-.3-.3-.3h-.2c0 .2.1.3.3.3h.2zm-.2 4.5l.6.6h.6l-.3-.6H3zm2.5-17.3c-.6 0-.9-.2-1-.6-.1-.4-.4-.6-1-.6-.4.4-.5.8-.3 1.3s.4.9.6 1.3c.6-.6 1.1-1.1 1.7-1.4zm-2-2h.3c-.2 0-.3-.1-.3-.3v.3zm.3 10.1c-.4.7-.3 1.3.3 1.7-.2-.4-.3-1-.3-1.7zm1.9 7.5c0 .2.1.4.3.6l.3.3.3-.3-.3-.3c-.2-.2-.3-.2-.3-.1s-.1 0-.3-.2c0-.6-.6-1.2-1.7-2-.4.7-.5 1.2-.4 1.4.1.2.6.6 1.5 1.1l.6-.5zm-.5 8.7v-1.4c-.7 0-1.1.1-1.1.3 0 .7.3 1.1 1.1 1.1zm3.9-29.6c.4-.7.4-1.3 0-1.7L8 102.4H5.7c-.6 0-.9.4-1.1 1.1.2 0 .4 0 .6.1.2.1.4.1.6.1h1.7c.4 0 .6.2.6.6 0 .4.2.7.6.8h.4zm-4.2 11.4c.6.2 1.2.5 2 .8l1.4-2.8c-.4-.7-.7-1.4-.8-2-.4-.4-.8-.4-1.4 0-.9.6-.8 1.2.3 2 .4 0 .7.1.8.3-.4.4-.8.6-1.4.6-.4-.2-.7 0-1.1.6.1.1.2.3.2.5l-.3.3.3-.3zm2.5 4.2c-.4.2-.7.4-1 .7-.3.3-.6.5-1 .7-.4 0-.6.2-.7.6-.1.4 0 .7.4 1.1l1.1.6c.7 0 1.3-.5 1.7-1.4 0-.4.2-.6.7-.7.5-.1.7-.4.7-1-.4-.2-.7-.3-1-.3-.2 0-.5-.1-.9-.3zM8 208c-.4.4-.7.8-1.1 1.3-.4.5-1 .5-2 .1 0 .9.1 1.4.3 1.4.2.2.3.2.4 0 .1-.2.2-.3.4-.3l.6-.3c.4.2.6.3.7.4.1.1.3.2.7.4.6.6.8.5.8-.3.2-.6.2-1.1 0-1.7-.2-.2-.5-.7-.8-1.4.7-.2 1-.7.8-1.4L8 208zm-1.7 5l-.6-.6-.3.3c0 .2.1.4.3.6.2-.2.4-.3.6-.3zm1.1 10.9c.2-.4.4-.5.6-.4.2.1.4 0 .6-.1.7-.4 1.2-.7 1.4-.8.6-.6.7-1.3.3-2.2-.4-.4-.6-.7-.6-1.1 0-.4-.2-.7-.6-.8-.4-.4-.5-.7-.4-1 .1-.3 0-.6-.4-1-.9.9-1.3 1.9-1.1 2.8.7.4 1.2.6 1.4.6-.1 1.1-.4 2.5-1.2 4-.4-.2-.7-.4-.8-.6-.2-.2-.5-.3-.8-.3-.4.9-.3 1.6.3 2 .3-.1.8-.5 1.3-1.1zM6 132c.7-.6.9-1.2.6-2-.9.6-1.1 1.2-.6 2zm.6 74.3l-.6 1.1c0 .2.1.3.3.3h.3c0-.2.2-.5.6-.8 0-.2 0-.3-.1-.3s-.1-.1-.1-.3h-.4zm0-83.3l-.3.3v-.6h.3v.3zm.3 81.6l-.3-.3h-.3l.3.6c.2 0 .3-.1.3-.3zm0-164c0 .2.1.3.3.3l-.3.3-.3-.3.3-.3zm2.8 194.2c-.7-.7-1-1.1-.8-1.1-.6-.4-1-.4-1.4 0-.6.6-.6.8 0 .8.4.4.8.6 1.4.6.2 0 .3 0 .4-.1 0-.1.2-.2.4-.2zM8 109.4c.4-.9.3-1.6-.3-2l-.6.3c-.1.5.1 1.1.9 1.7zm0 9.2l-.3-.3-.6.6.3.3.6-.6zm1.9 15.9c-.9-.4-1.5-.2-1.7.6 0 .6-.3.9-.8 1.1-.2.2-.3.4-.3.6l.6.3c.2-.2.3-.3.4-.3.1 0 .2-.1.4-.3.2.4.3.7.3 1.1 0 .4.4.5 1.1.3v-3.4zm4.8 103.7c.2 0 .4-.1.6-.3.4-.2.5-.4.4-.6-.1-.2 0-.5.4-.8.4-.4.5-.8.4-1.3-.1-.5-.3-.9-.7-1.3-.2-.2-.4-.3-.6-.3-.2 0-.4-.1-.6-.3.2-.4.3-.8.3-1.4-.6-.2-1.1-.3-1.5-.4-.5-.1-.9-.4-1.3-1 .2-.6.8-.8 2-.8-.2-.7-.3-1.4-.3-2.1 0-.7-.1-1.4-.3-2.1-.2-.2-.3-.4-.3-.6-.4.4-.8.6-1.3.7-.5.1-.9.2-1.3.4-.6.2-1.1.4-1.7.7-.6.3-.9.9-1.1 1.8-.4 0-.6.1-.6.3 0 .2-.1.4-.3.6 0 .4.2.6.6.6.2 0 .3-.1.3-.3v-1.1h2c-.4.4-.6.7-.7 1.1-.1.4-.2.7-.4 1.1.7.7 1.2 1.3 1.4 1.7.6 1.1 1.4 1.6 2.5 1.4h.4c.2.4.3.7.4 1 .1.3.4.4 1 .4 0 .2.1.3.3.3 0 .2 0 .3-.1.4-.1.1-.1.2-.1.4s0 .3-.1.4c-.1.1-.1.2-.1.4.2.3.4.6.4 1 0 .2-.2.7-.6 1.4.7-.2.9-.6.6-1.1v-.3zM8.3 31.4l-.6.6c0 .4.2.6.6.6l.3-.6-.3-.6zM8 111h-.3v.3H8v-.3zm-.3 9.3l.3-.3h-.3v.3zM9.4 94l-1.1.6c-.6.4-.5 1 .3 2 .2-.4.3-.7.4-1.1.1-.5.2-1 .4-1.5zm-.3 22.6l-.6-.6-.5.6.6.6.5-.6zm-.8 13.7l.6-.6c-.2-.2-.3-.4-.3-.6-.2.2-.3.4-.3.6v.6zm1.4 10.1l-.8-.8c-.4.4-.6.7-.6.8 0 .7.2.9.6.6.1-.1.4-.3.8-.6zm-.9-99.5h.6l-.3-.3-.3.3zm.3 65.4l-.3.6c0 .2 0 .3.1.3s.1.1.1.3l.6-.6-.5-.6zm1.1-58.4c-.4 0-.7-.1-.8-.3l-.3.3c0 .2 0 .3.1.3s.1.1.1.3c0-.2.1-.3.3-.3.2 0 .4-.1.6-.3zm.6-13.4c-.6 0-.9.1-1.1.3-.2.2-.3.5-.3.8.4.6.8.7 1.4.6v-1.7zm-1.1-7.6c.7.4 1.2.7 1.4.8.4 0 .7.2 1.1.6.4-.9.6-1.8.6-2.5v-2.5c-.4.2-.6.3-.6.4 0 .1-.2.1-.6.1-1.7-.7-2.3-.3-2 1.4v1.7zm.2 204c.4-.9.7-1.5.8-1.7.4.2.6.6.6 1.1-.1.8-.6 1-1.4.6zm1.4-209.6l-.2-.3c-.6.4-.8.7-.8.8-.4.7-.2.9.6.6l.4-1.1zm-.8 109l.6-.6v-.6h-.3l-.6.6c.2.2.3.4.3.6zm14.3 12.6c0 .2 0 .3.1.3s.1.1.1.3v-.3l-.2-.3c.2-.2.5-.7.8-1.4.4 0 .7.1 1 .3.3.2.6.2 1 0h2c.2-.2.3-.4.3-.6 0-.2.1-.5.3-.8-.6-.6-1.1-.7-1.7-.3-.6.4-1.1.3-1.7-.3-.2-.4-.7-.7-1.4-1.1.4-.7.7-1.3.8-1.8.2-.5.6-.9 1.1-1.3.6.6 1.4 1.2 2.5 2l.6.6c.4.6.7 1.2 1.1 1.8.4.7.8 1.2 1.4 1.5-.4.7-.6 1.2-.6 1.4 0 .6.4 1 1.1 1.4.4 0 .7.1 1 .3.3.2.6.3 1 .3 1.9.4 2.5 1.4 2 3.1-.4.7-.4 1.2 0 1.4.2.6.7.8 1.4.8.7-.4 1.4-.6 2-.6.4.4.7.7.8 1.1l.8.8c.7.2 1.7.8 2.8 2 .7.6 1.5 1.1 2.2 1.5.7.5 1.6.6 2.5.4l2 2c.4-.7.8-1.3 1.4-1.8.6-.5 1-1.2 1.4-2.1l.8-.8c.6-.2.8-.7.8-1.4.2-.2.3-.4.4-.6.1-.2.2-.4.4-.6l.6.6c.7.7 1.4.8 2 .3.4-.2.7-.4 1.1-.6.4-.2.7-.4 1.1-.6-.2-.4-.3-.7-.4-.8-.1-.2-.2-.5-.4-.8 0-.4-.2-.6-.6-.6 0 .4-.2.6-.6.6-.2.2-.2.4-.1.7.1.3 0 .4-.4.4-.2-.2-.3-.3-.3-.4 0-.1-.1-.2-.3-.4-.2-.4-.3-.6-.4-.7-.1-.1-.2-.3-.4-.7.4-.6.6-1.2.7-1.8.1-.7.3-1.3.7-1.8v-1.1c.2-.9.3-1.9.3-2.8 0-.9.1-1.9.3-2.8.4 0 .6 0 .7-.1.1-.1.2-.1.4-.1v.6c.9.6 1.6 1.5 2 2.8 0 .2.2.3.6.3.2-.4.4-.8.6-1.4.2-.6.4-1 .6-1.4-.2-.6-.5-1.2-.8-2 .6-.9 1-1.3 1.4-1.1.4.2.6.7.6 1.7.4.6.9.7 1.7.6.4-1.3.2-2.3-.6-3.1-.4-.4-.6-.7-.6-1.1v-1.7h-.3c-.2 0-.4-.1-.6-.3 0 .4-.2 1.1-.6 2.2-.4.2-.9.1-1.7-.3.9-1.1.7-2.2-.6-3.4l-.6-1.1c-.6-.6-1-.6-1.4 0-.7.7-.9 1.5-.6 2.2l.6-.3c.6-.2.9-.2 1.1 0 .2.4.1.7-.3 1.1-.7.4-1.4.7-2 .8 0-.7-.2-1.9-.6-3.4-.4-1.5-.7-2.5-.8-3.1.4-.4.7-.7 1-1.1.3-.4.3-.8.1-1.4l1 1c.3.3.2.7-.1 1.3 0 .4.1.6.3.6 0 .2.2.3.6.3h.3c0-.4 0-.7.1-.8.1-.2.1-.4.1-.6-.2-.4-.3-.7-.4-1.1-.1-.4-.3-.7-.7-1.1-.4 0-.7.2-1.1.6l-1.7.8c-.2-.4-.4-.7-.6-.8-.2-.2-.3-.4-.3-.6 0-.4.1-.7.3-1.1.2-.4.2-.7 0-1.1 0-.2.1-.3.3-.4.2-.1.3-.2.3-.4-.4-.7-.6-1.2-.6-1.3 0-.1.4-.3 1.1-.7v-1.4c-.2-.2-.5-.3-.8-.3h-.6l-.6.6c-.2.4-.3.7-.3.8 0 .2-.1.5-.3.8 0 .2-.2.5-.6.8-.6-.7-1.1-1.4-1.5-2-.5-.6-.9-1.1-1.3-1.7.4-.4.6-.8.6-1.3v-1.3c-.4-.7-.9-1.3-1.7-1.7-1.1-.4-1.8-.8-2-1.4-.4-.6-.7-1-1.1-1.4l-1.1-1.1c-.6 0-.9.1-1.1.3 0-.2.1-.3.3-.3-.9-.7-1.8-1.3-2.5-1.7 0-.4 0-.7.1-1 .1-.3 0-.6-.1-1 0-.4-.4-.5-1.1-.3l-.3.3-.6-.6c-.4-.7-.8-1.2-1.4-1.4-.6-.2-.8-.7-.8-1.7.2-.2.3-.6.3-1.1h2.5l.3.3c0 .2-.1.3-.3.3l-.3.3c-.7 0-.9.4-.6 1.1 0 .4.3.6.8.6.2 0 .4 0 .6.1.2.1.4.1.6.1.4-.6.7-1.1 1.1-1.7.4-.6.4-1.2 0-2-.2-.4-.2-.7 0-.8.2-.2.3-.5.3-.8 0-.6-.1-.8-.3-.8-.6-.6-.8-.5-.8.3-.2.4-.3.7-.3.8 0 .2-.1.5-.3.8l-1.4-1.4c0-.4 0-.6.1-.7.1-.1.1-.2.1-.4v-.8c.4-.6.5-1 .3-1.4-.2-.4-.5-.7-.8-1.1-.6.6-.8 1.3-.8 2.2-.4 0-.9-.2-1.7-.6-.2.4-.3.7-.3 1.1.6 1.1.4 2.1-.6 3.1-.6.6-1.1.6-1.7 0l-.8-.8c-.2-.2-.3-.3-.4-.3-.1 0-.2-.1-.4-.3V94c0-.2-.2-.3-.6-.3l-.3.3v1.4H32c.4-1.1.7-1.9 1.1-2.2-.4-1.1-.7-1.9-.8-2.2-.4 0-.7 0-.8-.1-.2-.1-.5-.1-.8-.1.2-.4.3-.6.3-.7 0-.1.1-.3.3-.7l-.3-.3h-.6c-.2.7-.7 1.7-1.4 2.8.2.4.4.7.6.8.2.2.3.5.3.8.2.2.3.4.3.6 0 .2.1.5.3.8-.7 0-1.2.1-1.4.3-.4.2-.6.7-.6 1.4 0 .4-.3.6-.8.6-.4.2-.7.2-.8.1-.2-.1-.5-.1-.8-.1 0 .7-.2 1.3-.6 1.7-.2.4-.2.7 0 1 .2.3.3.6.3 1-.4.7-.8 1.4-1.4 2-.6-.6-.9-1.2-1.1-1.8-.2-.7-.5-1.3-.8-2.1l.3-.3c.2 0 .4 0 .6.1.2.1.4.1.6.1.4-.7.4-1.3 0-1.7-.4-.4-.7-.7-.8-1.1-.9 0-1.4.4-1.4 1.1v.3c-.7.6-.9 1.1-.6 1.7.2.4.2.7 0 .8-.2.2-.1.7.3 1.7 0 .4 0 .7.1.8.1.2.1.4.1.6-.4.4-.6.6-.7.6-.1 0-.2.2-.4.6 0 .2 0 .4.1.6.1.2.1.4.1.6v1.4c.4-.2.8-.3 1.3-.4.5-.1.9 0 1.3.4-.2.4-.2.8-.1 1.3s0 .9-.4 1.3c-.7.7-.9 1.4-.6 2 .2.4.2.7 0 1.1-.2.4-.2.7 0 1.1.4.7.5 1.3.4 1.5-.1.3-.5.6-1.3 1 0 .2-.1.3-.3.3.7.4.9.8.6 1.4-.2.4-.3.7-.3 1s-.1.6-.3 1c-.4-.7-.9-1.3-1.5-1.5-.7-.3-1.2-.8-1.5-1.5l1.1.6c-.2-.9-.5-2.1-.8-3.6-.4-.2-.6-.3-.7-.4-.1-.1-.3-.2-.7-.4 0-.4-.1-.7-.3-1.1-.2-.4-.2-.8 0-1.4.2-1.1-.1-2.2-.8-3.4-.2-.2-.3-.6-.3-1.1-.6-.2-1.1-.3-1.7-.3-.9 0-1.5.3-1.7.8-.2.4-.2.8-.1 1.4.1.6 0 1.1-.4 1.7-1.1 1.5-1.3 2.8-.6 3.9 0 .2 0 .4-.1.6-.1.2-.1.5-.1.8.4-.4.7-.6.8-.7.2-.1.5-.3.8-.7 0 .6-.1.9-.3 1.1-.6.9-.8 1.9-.8 2.8 0 .7-.1 1.3-.3 1.7-.4 1.1-.1 2 .8 2.5.2.2.3.3.4.3.1 0 .2.1.4.3l.6-.6-.3-.3c-.4 0-.7.2-1.1.6.2-.4.3-1 .3-2-.4-.7-.2-1.5.6-2.2.2-.4.3-.6.4-.7.1-.1.2-.3.4-.7h1.1l.6-.6c0-.2-.2-.5-.6-.8h-.6c-.4-.4-.6-.7-.6-.8.2 0 .3-.1.3-.3 0-.2.1-.3.3-.3.2 0 .5-.4.8-1.1l1.1 1.1c.2.2.5.7.8 1.4 0 .2.2.5.6.8.4.7.2 1.2-.6 1.4-.6.4-.8.7-.8 1.1.2.4.4.5.7.3.3-.2.4-.1.4.3-.2.6-.1.9.3 1.1.4.2.7.5.8.8-.6.9-.8 1.9-.8 2.8.4.2.9.3 1.7.3-.7.4-1.2.7-1.4.8l-1.1 1.1c-.4-.2-.7-.3-1.1-.3-.4 0-.7-.1-1.1-.3-.4.2-.7.7-1.1 1.4-.4.7-.5 1.3-.3 1.7.6 1.3 1.4 2.5 2.5 3.6.4 0 .7.1 1.1.3-.4-.7-.6-1.2-.6-1.4 0-.7.1-1.2.3-1.4 0-1.3.6-2 1.7-2.2.2 0 .6-.5 1.1-1.4.2-.4.5-.5.8-.3.4.2.7.1.8-.3l.3-.6c-.2-.4-.4-.7-.6-1-.2-.3-.4-.6-.6-1-.2-.6-.1-1 .3-1.3.4-.3.6-.7.6-1.3l.3-.3c.6 0 .8.3.8.8v1c0 .3.2.6.6 1v-.3c-.6.9-.4 1.7.6 2.2.7.2.9.8.6 2 0 .4-.2 1.3-.6 2.8h.3c.7-.4 1.2-.3 1.4.3.4 1.1.6 2.1.6 2.8 0 .2 0 .4.1.6.1.2.1.4.1.6.6 0 .7-.1.6-.4-.2-.3-.1-.5.3-.7.7.6 1 1.4.8 2.5-.4.2-.7.3-.8.3-.2 0-.4.1-.6.3-.4-.6-.9-1.2-1.7-2-.4-.4-.6-.7-.7-1-.1-.3-.3-.6-.7-1l-.3-.3c-.7.4-1.2.7-1.4 1.1v3.1c.4.7.9 1 1.7.8l1.7.6c-.6.2-1.1.3-1.7.3l-.3.3.3.6c.7 0 1.1.3 1.1.8 0 .2.2.5.6.8.4-.2.7-.5 1.1-.8 0 .6-.2 1-.6 1.4-.4.4-.7.8-1.1 1.4-.4.4-.7.3-1.1-.3 0-.7-.3-1.1-.8-1.1-.2.6-.4 1.1-.6 1.7-.2.6-.4 1-.6 1.4.2.4.4.6.6.6.2 0 .3.1.3.3.4 1.1.6 1.9.6 2.2v.6c-.4.4-.5.8-.4 1.3.1.5 0 .9-.1 1.3-.2.2-.4.3-.7.3s-.3.2-.1.6c0 .2 0 .4.1.6.1.2.1.4.1.6-.2.4 0 .7.6 1.1.9-.4 1.5-1 1.7-1.8.2-.8.5-1.7.8-2.7-.9-.6-1-1.2-.3-2 .4-.4.5-.7.3-.8-.2-.2-.4-.5-.6-.8.1-1.3.6-1.8 1.2-1.8zm-13.2 4.2c.2-.7.3-1.5.3-2.2-.2 0-.3-.1-.3-.3l-.3-.3c-.4 0-.6.2-.6.6-.1.7.2 1.4.9 2.2zm-.3-121h-.6v-.3h.3l.3.3zm-.5 201.2c.4-.4.7-.5.8-.3l.6.6c.2.2.2.4 0 .6-.8-.5-1.2-.7-1.4-.9zm1.7-89.4l-.8-.8c-.2 0-.4.1-.6.3-.2.2-.2.4 0 .6 0 .9.3 1.1.8.6l.6-.7zm-1.4-5.4l.3.3.3-.3v-.3c-.3.1-.5.2-.6.3zm2.2-38.8c0-.7-.3-1.1-.8-1.1-.7 0-1.1.3-1.1.8 0 .4.3.6.8.6.2 0 .4 0 .6-.1.1-.1.3-.2.5-.2zm.3 48.9c-.2-.4-.3-.7-.3-.8 0-.2-.1-.4-.3-.6h-.6c-.7.7-.7 1.3 0 1.7 0 .2.1.3.3.3h.3c.4 0 .6-.2.6-.6zm-1.7-46.4v1.1c.6-.3.6-.7 0-1.1zm0 124.4v4.2c.9-.2 1.7-.7 2.2-1.7l-1.7-2.5h-.5zM13 40.9c.4-.9.1-1.7-.8-2.2.2.6.3 1 .3 1.3 0 .2.1.5.5.9zm.6-23.2c-.6.6-.8.9-.8 1.1 0 .2.3.7.8 1.7.2-1.1.2-2.1 0-2.8zm0 88.6c1.5 1.3 2 2.5 1.4 3.6-.4.7-.8.9-1.4.6-.6-.6-.8-.9-.8-1.1v-.8c.2-.4.3-.7.3-1.1-.1-.5.1-.8.5-1.2zm1.4 26.8c-1.1 0-1.8.1-2 .3-.2.2-.3.7-.3 1.7v.6c.9 0 1.3-.2 1.1-.6 0-.4.1-.7.4-1 .4-.3.6-.6.8-1zm-.3-35.8c-.2 0-.5-.2-.8-.6-.9.9-1.1 1.8-.6 2.5l1.1 1.1c.7.2 1.1.7 1.1 1.7 0 .9.2 1.6.6 2 .4 0 .6-.4.6-1.1 0-.4 0-.7-.1-1-.1-.3 0-.6.4-1 .4-.2.7-.2.8 0 .2.2.5.4.8.6l.6-.3v-.8c-1.3-.7-2.4-2-3.4-3.6-.4.2-.7.5-1.1.8v-.3zm-1.1 5.1l-.6.6c.2 0 .3 0 .3.1s.1.1.3.1l.3-.3c0-.2 0-.3-.1-.3-.2 0-.2 0-.2-.2zm0 47.5v-1.1H13v.8c0 .2.2.3.6.3zm.3-116.3c-.6.7-.8 1.2-.7 1.4.1.2.5.5 1.3.8.1-.7-.1-1.4-.6-2.2zm-.6 103.1c-.2.6-.2.9 0 1.1h.3c.4-.2.4-.5 0-.8 0-.2-.1-.3-.3-.3zm1.1-113.1c-.2.7-.5 1.4-.8 2-.4.6-.4 1.3 0 2.2.4-.2.7-.5 1.1-.8.2.4.3.7.3 1 0 .3.1.6.3 1 .4-.9.7-1.8.8-2.5.2-.7.5-1.5.8-2.2-.7-.7-1.6-.9-2.5-.7zm-.8 99.2l-.3-.3v.3h.3zm1.4 84.1h-1.7c.2-.4.3-.6.4-.7.1-.1.2-.3.4-.7.4.7.6 1.2.6 1.4h.3zm-.6-175.8c-.6.6-.6 1 0 1.4h.3c.2 0 .3-.1.3-.3 0-.5-.2-.9-.6-1.1zm.6 110.7c.2-.4.3-.7.3-.8 0-.2.1-.5.3-.8-.2-.2-.4-.3-.6-.3-.2 0-.3.1-.3.3-.2.6-.1 1 .3 1.4-.4.7-.5 1.4-.3 2.1.2.7.3 1.4.3 2.1-.7.6-1 1-.8 1.4.4.6.6 1.1.6 1.5 0 .5.1.9.3 1.3 0-.2.2.1.6.8 0-.4 0-.7.1-.8.1-.2.1-.4.1-.6-.2-.6-.3-1.2-.3-1.8 0-.7-.2-1.3-.6-1.8.4-.4.6-.8.7-1.3.1-.5.2-.9.4-1.3.4-.6 0-1.1-1.1-1.4zm-.6-112.4v-.3c-.2 0-.3.1-.3.3h.3zm0 39.2l.3-.3V68h-.6c0 .2 0 .3.1.3.2 0 .2.1.2.3zm-.3 136.3c0-.2.1-.3.3-.3v.3h-.3zm1.4-77.1l-.3.6c-.2-.2-.3-.3-.4-.3-.1 0-.2-.1-.4-.3h1.1zm-.8 98.1c0-.2-.1-.3-.3-.3v.3h.3zM15.3 21c0 .2-.1.4-.3.6-.4 0-.4.2 0 .6.6 0 .7-.2.3-.6V21c.2.2.4.3.6.3V21h-.6zm-.6 76.6v-.3.6h.3c0-.4-.1-.5-.3-.3zm0 24.9v1.1h.6c0-.4-.1-.7-.3-.8l-.3-.3zm.6 99.2v-.3c-.2 0-.4.1-.6.3l.3.3c.2 0 .3-.1.3-.3zm-.6 19.8h.3c.4 0 .5.3.3.8H15c-.2.1-.3-.2-.3-.8zm1.4-221.3h.3c.4-.6.5-1 .3-1.4 0-.4-.2-.6-.6-.6-.4.2-.6.6-.6 1.1 0 .2.1.4.3.6.2 0 .3.1.3.3zm3.1 34.1c.6 0 1 .2 1.3.7.3.5.7.9 1.3 1.3-.2-.7-.3-1.4-.3-2 0-.6-.1-1.1-.3-1.7-.4-.2-.6-.3-.7-.4-.1-.1-.3-.2-.7-.4.4-.4.6-.7.6-.8l.8-1.7c-.4-.4-.5-.8-.4-1.3.1-.5 0-.9-.1-1.3 0-.2-.1-.4-.3-.6 0 .6-.4 1-1.1 1.4 0 .4 0 .8.1 1.3s0 .9-.4 1.3c-.4-.4-.7-.6-1.1-.7-.4-.1-.6-.4-.6-1s-.4-.7-1.1-.3c-.2.2-.2.6 0 1.1.4.4.4.8 0 1.4-.4.4-.6.7-.6.8 0 .4.2.7.6.8.4-.2.6-.4.7-.6.1-.2.3-.4.7-.6.4.4.7.6.8.7.2.1.4.2.6.4.1.6.2 1.3.2 2.2-.2.4-.4.5-.7.3-.3-.2-.5-.1-.7.3-.2.4-.4.7-.6.8-.2.2-.4.5-.6.8 0 .6.2 1 .6 1.4.6-.4 1.1-.5 1.5-.3.5.2 1 .5 1.5.8l.8-.8-2-2v-1.3zm-3.4 69.6c-.2.2-.3.4-.3.6h.3v-.6zm0 85.2h-.3l.3.3v-.3zm1.1-116.2c-.4.7-.6 1.3-.7 1.7-.1.4-.2.8-.4 1.4.9-.7 1.4-1.2 1.5-1.4.1-.2 0-.8-.4-1.7zm-.8-22.7l.6-.6c.2-.2.3-.4.3-.6h-.3c-.4 0-.6.1-.6.3v.9zm.5-38.8c0 .2 0 .3-.1.3s-.1.1-.1.3c.2.2.3.4.3.6l.3-.6c-.1-.2-.2-.4-.4-.6zm.6 14c.4-.4.6-.7.6-1.1h-.6c-.4 0-.6.3-.6.8l.3.3h.3zm.6 191.7c-.2.2-.3.3-.4.3-.1 0-.2.1-.4.3-.2 0-.3.1-.3.3 0 .2.1.3.3.3 0 .2.2.3.6.3l.3-.3v-1.2h.6l.3-.3v-.6c-.4 0-.6.1-.6.3-.3 0-.4.2-.4.6zm.5-94.5c-.2.4-.3.7-.3.8 0 .2-.1.4-.3.6 0 .6-.1.8-.3.8-.9.4-1 1.1-.3 2.2.4 0 .7.1 1.1.3.7.2 1.6 0 2.5-.6.6-.6.6-1 0-1.4-.4-.6-.8-1-1.4-1.4-.4-.2-.6-.4-.6-.6.2 0 0-.3-.4-.7zm-.5 9.5h-.3c-.7 0-.8.3-.3.8.2.2.4.3.6.3.3-.3.3-.7 0-1.1zm-.6-135.8V16c-.2 0-.3.1-.3.3h.3zm0 112.9v-.3c-.2 0-.3.1-.3.3h.3zM18 227c.2.4.4.7.6 1.1.2.4.2.7 0 1.1h-.8c-.2 0-.3 0-.4.1-.1.1-.2.1-.4.1.2-.4.3-.8.3-1.4.5-.4.7-.8.7-1zm-.8-162.4c.2-.6.2-1.1 0-1.7-.4.7-.3 1.3.3 1.7 0 .4.2.7.6 1.1 0 .6.3.6.8 0l.6-.6c0-.2-.2-.5-.6-.8h-.6c-.2 0-.3 0-.4.1-.1.2-.3.2-.7.2zm1.1-50l-.6-.6c-.4 0-.6.2-.6.6 0 .4.2.6.6.6l.6-.6zm.3 127.4c.4-1.3.4-2.2 0-2.8 0-.2-.2-.3-.6-.3-.2 0-.4.1-.6.3-.2.7 0 1.6.6 2.5 0-.1.2 0 .6.3zm-.3-103.9c-.2 0-.3 0-.3-.1s-.1-.1-.3-.1l-.3.3c0 .4.2.6.6.6 0-.3.1-.5.3-.7zM18 232.3c.4.2.7.4 1 .6.3.2.6.5 1 .8 0-.2 0-.3.1-.3s.1-.1.1-.3c.4-.9.1-1.4-.8-1.4-.4.2-.7.3-.8.3-.2 0-.4.1-.6.3-.4.7-.6 1.3-.6 1.7l.6.6h.3c.2 0 .3-.1.3-.3.2 0 .3-.2.3-.6-.4-.7-.7-1.2-.9-1.4zm.9-145.9c0-.6-.1-.8-.3-.8l-.3-.3c-.2 0-.4.1-.6.3-.4.7-.2 1.3.6 1.7h.3c.2-.2.3-.5.3-.9zM20 208.6l-.3-.3c-.6.6-1.1.8-1.7.8-.2.2-.3.4-.3.6-.2.4-.1 1 .3 2 .4.9.7 1.5 1.1 1.7h.9c.4-.7.6-1.6.6-2.5l-.6-.3v-2zM18 92.9l-.3.3h.3v-.3zm.3 65.6h.6c0-.9.1-1.6.3-2 0-.4 0-.7.1-1 .1-.3.1-.6.1-1 0-.2 0-.3-.1-.4-.1-.1-.1-.2-.1-.4-.7.7-1.2 1.3-1.4 1.7 0 .4.2.9.6 1.7v1.4zm-.5 49.2c.6-.4 1.2-.7 2-1.1-.7 0-1.3-.1-1.7-.3-.2.4-.3.9-.3 1.4zm.8-174.4h.3l.8-1.7c-.2-.2-.4-.3-.6-.3-.4 0-.7.2-1 .7-.3.5-.2.9.1 1.3h.4zm-.3-5.8l.6-.6c-.2-.2-.3-.4-.3-.6l-.6.6c.2.2.3.4.3.6zm.3 64.2c.6-.6.7-1 .6-1.4l-.6-.3c-.6.2-.7.7-.3 1.4l.3.3zm3.6-1.9h-.6L20 92.3l-1.7 2.5c-.4.9-.3 1.6.3 2 .2-.2.4-.3.6-.3.2 0 .5-.1.8-.3 0-.6.2-1.2.6-2 .2-.4.4-.7.6-1.1.2-.4.5-.7.8-1.1.5-.5.6-1.3.2-2.2zm-3-69.3c.7-.4 1-.7.8-1.1-.4-1.1-.6-1.8-.6-2 0-.9-.4-1-1.1-.3-.4 1.2-.1 2.3.9 3.4zM18.9 42c-.4 1.1-.6 1.8-.6 2.1v1.5c.6.2.8 0 .8-.6 0-.2-.1-.4-.3-.6-.2-.2-.1-.5.3-.8.9 0 1.6-.1 2-.3.2-.4.3-.7.3-1.1 0-.4.1-.7.3-1.1.2-.4.4-.8.6-1.4.2-.6.4-1 .6-1.4.4-.7.2-1.2-.6-1.4-.3-.1-.3-.2-.3-.3 0-.1-.1-.2-.3-.4-.2-.4-.3-.7-.4-1-.1-.3-.3-.6-.7-1l-.3-.3-1.1.6c.6 1.1 1.3 2.1 2.2 2.8v.3c-.4.4-.7.5-.8.3-.2-.2-.5-.1-.8.3v.6c.4.4.6.7.7 1 .1.3.2.6.4 1 0 .7-.3 1.1-.8 1.1-.2 0-.3 0-.4.1h-.8zm0 88.6l.6-.6c0-.4-.3-.6-.8-.6l-.3.3c.2.2.3.3.3.4-.1.2 0 .3.2.5zm0 86.9c.6-.6.8-.9.7-1.1-.1-.2-.4-.5-1-.8-.4.5-.3 1.1.3 1.9zm1.9-190c-.4.2-.7.4-1.1.6-.4.2-.7.5-1.1.8 0 .4.1.7.3.8.4.9.9 1 1.7.3l1.1-1.1.3-.6c0-.5-.4-.8-1.2-.8zm-1.9 78.2c-.2.2-.3.4-.3.6v.3c.4 0 .6-.1.6-.3-.2-.2-.3-.4-.3-.6zm-.3 5.6c0 .4 0 .7.1.8.1.2.1.5.1.8 0 .2.2.3.6.3.2 0 .4-.1.6-.3.4-.7.3-1.4-.3-2-.4.1-.7.2-1.1.4zm.6-22.6v-.3c-.2 0-.3.1-.3.3h.3zm.5 39.4c-.2-.2-.3-.3-.3-.4 0-.1-.1-.2-.3-.4l-.3.3v.8c.3-.2.5-.3.9-.3zm0-104c-.4 0-.6.3-.6.8l1.1.6c.5-.9.3-1.4-.5-1.4zm4.2 32.4c-.4.4-.7.9-1.1 1.7-.2.4-.4.7-.6 1-.2.3-.4.6-.6 1-.4-.4-.7-.6-1.1-.7-.4-.1-.7-.2-1.1-.4-.4.9-.2 1.5.6 1.7.4.2.7.3.8.3.2 0 .5.1.8.3 0 .7.1 1.3.3 1.7 0 .7.5.8 1.4.3 0-.4.1-.7.3-.8 0-.2.2-.5.6-.8.4.4.6.7.6.8 0 .2.2.4.6.6.2.6.7.8 1.4.8l.6-.3v-.8l-1.7-.8v-2.2c.2-1.1 0-2.1-.6-3.1h-1.2zm-3.6 166.6l.6-1.1c0-.4 0-.7-.1-1-.1-.3-.1-.6-.1-1H20l-.3.3c-.2.7 0 1.7.6 2.8zm.3-107.9c0-.2-.1-.3-.3-.3-.2.2-.4.3-.6.3l.3.3c.4.4.6.3.6-.3zm2.2-103.9c0-.9-.1-1.6-.3-2 0-.6-.1-.9-.3-1.1-.4.2-.7.5-1.1.8l-.8.6c-.7.7-.7 1.5.3 2.2.2 0 .4.1.6.3 0-.4 0-.7.1-.8.1-.2.1-.5.1-.8.4.2.6.3.7.3.1-.1.3.1.7.5zm-2.5-4.5c0 .2 0 .3-.1.4-.2.1-.2.3-.2.4.2 0 .4.1.6.3l.3-.6-.6-.5zM20 140.1c1.1-.7 1.5-1.3 1.1-1.7-.4 0-.7-.1-.8-.3v.3c0 .4 0 .7-.1.8-.2.2-.2.5-.2.9zm1.1 75.2l-.3.6c0 .2-.1.3-.3.3v1.1c0 .4.3.6.8.6.3-.5.2-1.3-.2-2.6zm.6-59.3c-.9.6-1.1 1.1-.6 1.7 0 .4.2.6.6.6.6 0 .7-.3.6-.8-.1-.3-.3-.7-.6-1.5zm-.3-136.9h-.3l.3.3v-.3zm.3 67.9l.8-.8c.2-.6.2-1.1 0-1.5-.2-.5-.4-.9-.6-1.3h-.8c0 1.5.2 2.7.6 3.6zm.1 40.2c-.1 0-.1-.1-.1-.3l-.3.3c0 .2 0 .3.1.3s.1.1.1.3l.3-.3c.1-.2 0-.3-.1-.3zM23.4 80v-1.1c0-.4-.1-.6-.3-.6-.2 0-.4-.2-.6-.6v-.3c0-.2-.1-.3-.3-.3l-.6 1.1c.4.2.6.3.6.4 0 .1.1.2.3.4l.9 1c0 .4-.1.7-.3.8-.2.2-.3.5-.3.8.2.4.1.6-.1.6-.3 0-.5.2-.7.6.9-.4 1.6-.5 2-.3.4 0 .7.1.8.3.2.2.5.4.8.6.2-.2.4-.3.6-.3v-.6c-.4-.6-1.1-1-2.2-1.4.2-.4.5-.7.8-1.1h-1.4zm-1.2 42.5v-.3H22l.3-.3v.6zm1.4-88.9l-.8-.8-.6.6c0 .7.3.9.8.6.3-.1.4-.2.6-.4zm-.8 55.1v-.3l-.3.3c0 .2.1.3.3.3v-.3zm0-76.3c.2 0 .3 0 .3.1s.1.1.3.1v-.3l-.3-.3-.3.4zm.3 47.8c.2.2.3.5.3.8h-.6c.2-.2.3-.5.3-.8zm.8 148.1c-.4.6-.6 1-.7 1.4-.1.4-.2.7-.4 1.1.2.6.4.8.6.8.2.4.4.6.7.6.3 0 .4-.2.4-.6.2-.6.3-1.1.3-1.5 0-.5-.3-1.1-.9-1.8zm1.7-161.5v-4.2l-1.1-.6c-.2.4-.3.7-.3 1 0 .3-.2.5-.6.7-1.1.7-1 1.3.3 1.7.4.1.9.6 1.7 1.4-.4-.2-.7-.3-.8-.3-.2 0-.5-.1-.8-.3-.2 0-.3 0-.3.1s-.1.1-.3.1c0 .6.1 1 .3 1.4.4-.2.7-.4 1-.6.2-.1.5-.3.9-.4zm-2.2 86.9c0 .4 0 .6.1.7.1.1 0 .3-.4.7-.2-.8-.1-1.2.3-1.4zM34 147.6c-.7.4-1.4.7-2 .8l-.8-.8c-.2 0-.5-.2-.8-.6-.2.4-.4.7-.6 1.1-.2.4-.4.7-.6 1.1-.6 0-1 0-1.4.1-.4.1-.7.1-1.1.1-.4-.2-.7-.3-1-.4-.3-.1-.6-.2-1-.4-.7.4-.8.8-.3 1.4.7 0 1.2.3 1.4.8-.7.4-1.3.6-1.7.6-.6.2-.9.7-1.1 1.4.7.2 1.9-.1 3.4-.8.4.4.6.7.7.8.1.2.3.5.7.8.6 0 .9-.1 1.1-.3.2-.2.1-.5-.3-.8-.2-.2-.3-.6-.3-1.1 0 .2.3 0 .8-.6l1.4 1.4c.7-.4 1.1-.8 1.1-1.4 0-.6.2-1 .6-1.4.9.4 1.3.8 1.1 1.4-.2.6-.4 1.1-.6 1.7.6.6 1 .9 1.4 1.1l.6-.6v-1.7c0-.6-.2-1-.6-1.4 0-.2 0-.4-.1-.6-.1-.2-.1-.4-.1-.6v-1.1c.4-.4.7-.4 1-.1.3.3.6.3 1 .1-.2-.9-.7-1.4-1.7-1.4.1.6 0 1.1-.2 1.4zM24.8 222c-.4 0-.7-.1-.8-.3-.6 0-.8.3-.8.8.4.4.7.6.8.6.5 0 .8-.4.8-1.1zm0 10.6c-.4 0-.7.1-.8.3-.7.4-.9 1.2-.6 2.5 0 .6.4.8 1.1.8.2 0 .4-.1.7-.3.3-.2.3-.4.1-.6-.4-.4-.5-.8-.4-1.4.1-.5 0-.9-.1-1.3zm-.9-177.7c.4 0 .9.2 1.7.6.4 0 .6-.3.6-.8v-1.4c-.4 0-.6 0-.7.1-.1.1-.3 0-.7-.1-.2 0-.4 0-.6-.1-.2-.1-.4-.1-.6-.1-.4.4-.4.7-.1 1 .3.1.4.4.4.8zm.3-26.6l-.3-.3-.6.6.3.3.6-.6zm.6 48.1c.6-2.4.6-4.3 0-5.6-.6.2-1 .7-1.4 1.4 0 .6.1.9.3 1.1l.6.6c0 .4-.2.9-.6 1.7-.1.1.3.4 1.1.8zm-.6 26.5c-.6.6-.7 1.2-.6 2 .6-.6.8-1.2.6-2zm-.6-67.3c.2.2.4.3.6.4.2.1.4.3.6.7-.4.7-.7 1.4-.8 2 0 .2.1.4.3.6h.6l1.1-.6c-.6-.7-.7-1.9-.3-3.4.2-.6.2-1.1 0-1.7-.2-.6-.4-1-.6-1.4-.7 0-1.1.5-1.1 1.4 0 .4 0 .7.1 1 0 .3-.1.6-.5 1v.3-.3zm.3 179.1c0-.2 0-.3-.1-.3s-.1-.1-.1-.3v.6h.2zm0 8.9v.6h.3v-.3l-.3-.3zm.9 20.2c-.6.4-.7.9-.6 1.7 0 .4.2.6.6.6.6 0 .9-.2 1.1-.6v-.8l-.6-.6c.7-.4 1.1-.8 1.1-1.4-.4-.6-.7-.8-1.1-.8-.6.4-.7.8-.6 1.4v.5zm3.3-149.3c.2 0 .4-.1.6-.3-.2-.2-.3-.7-.3-1.4v-1.7c0-.6-.3-.8-.8-.8-.4.4-.7.6-.8.6-.4 0-.6 0-.7-.1-.1-.1-.3-.1-.7-.1-.4 0-.7.1-.8.3-.2.2-.3.5-.3.8 0 .2.1.3.3.4.2.1.3 0 .3-.1 1.1-.2 2 .2 2.5 1.1.2.7.5 1.2.7 1.3zm-3.9 123.3l1.1-.6c.2-.2.2-.5 0-.8l-.3-.3c-.2 0-.5.2-.8.6v1.1zm.3-123.3h.3v-.3l-.3.3zm1.4-80.7c.7-.2 1.1-.7 1.1-1.7 0-.6-.3-1-.8-1.4-.8.9-.9 2-.3 3.1-.6-.6-.9-.6-1.1 0-.2.4.1.8.8 1.4 0-.6.1-1 .3-1.4zm-1.1 15.9c0 .6.3 1.1.8 1.7.4-.8.1-1.3-.8-1.7zm.5 14.3l-.3.2c-.2-.2-.3-.4-.3-.6h.3l.3.4zm1.1 204.2c-.4 0-.6 0-.7-.1-.1-.1-.2-.1-.4-.1l-.3.3-.3.3c0 .4.3.6.8.6.3-.1.6-.4.9-1zm0-172.1c-.7-.4-1-.6-.8-.6l-.3.3c0 .2.1.4.3.6h.3c.2-.2.3-.3.5-.3zm-.5 19.6c0-.2-.1-.4-.3-.6 0 .2-.1.3-.3.3l.3.3h.3zm0 51.7h-.6c.2.2.3.4.3.6.2-.2.4-.3.6-.3l-.3-.3zm.5-137c.4-.9.2-1.7-.6-2.2-.3.9-.1 1.7.6 2.2zm-.3-3.9h-.3v.8h.3v-.8zm1.2 136.4c-.4.2-.6.3-.7.4-.1.1-.3.2-.7.4.4.6.9 1.2 1.7 2h.6c.2-.2.3-.4.4-.6.1-.2.2-.4.4-.6l-1.7-1.6zm.2-59.5H27c-.4.4-.5.8-.4 1.4.1.6 0 1-.4 1.4 0 .4.2.7.6 1.1v1.1c0 .4.2.6.6.6.2-.9.3-1.9.4-2.8 0-1-.1-1.9-.3-2.8zm-1.1 75.4c0 .2 0 .3-.1.3s-.1.1-.1.3c.2 0 .3.1.3.3l.3-.3c0-.2 0-.3-.1-.3-.2 0-.3-.1-.3-.3zm.3-86.9c-.2 0-.3.1-.3.3l.3.3.3-.3-.3-.3zm.6 76c0-.2.1-.4.3-.6-.2-.2-.3-.2-.3 0-.2 0-.4.1-.6.3.2 0 .4.1.6.3zM27.5 6c.6-.4.8-.9.8-1.7-.2 0-.3-.1-.3-.3l-.3-.3c-.2 0-.5.2-.8.6-.1.5.1 1.1.6 1.7zM27 156h1.4c.4 0 .7.1 1.1.3v-1.4c-.9 0-1.6.1-2 .3-.1 0-.3.3-.5.8zm.3 1.1c-.2.4 0 .7.6 1.1 1.1.2 2-.1 2.8-.8-.6-.4-1-.6-1.3-.6-.3.1-1 .2-2.1.3zm1.4-106.4c0 .4 0 .7-.1.8-.1.2-.3.7-.7 1.4-.4-.6-.4-1-.1-1.3.2-.2.5-.6.9-.9zm-1.2-29.4v1.4c0 .2.2.3.6.3l.3-.3c0-.5-.3-1-.9-1.4zm.3 74.6v-.3c-.2 0-.3.1-.3.3h.3zm1.1-64.2c0-.4-.2-.6-.6-.6-.2 0-.4.1-.6.3l.6.6c.3-.1.5-.1.6-.3zm-.2 15.1l-.6-.6-.3.3.3.6c.2 0 .3 0 .3-.1 0-.2.1-.2.3-.2zm1.6 13.9c0-.6 0-1.1.1-1.5.1-.5.1-.9.1-1.3l-1.7-.8-.6 1.1-.6 1.1c.4 0 .6 0 .7.1.1.1.2.1.4.1.2.2.4.3.6.4.4.2.7.5 1 .8zm-1.9 1.4v-.6h-.6l.3.6h.3zm2.8-50.3c0-.2-.2-.7-.6-1.4-.4-.7-.9-.7-1.7 0l-.8 1.7 1.7 1.7c.2-.4.4-.7.6-1 .1-.3.4-.6.8-1zm-2.3 233.1l-.3.3c0 .2.1.3.3.3h.3c0-.2-.1-.4-.3-.6zm1.4-83c-.2-.2-.3-.3-.3-.4 0-.1-.1-.2-.3-.4-.2 0-.3 0-.4.1-.1.1-.2.1-.4.1 0 .7.2 1.1.6 1.1.2 0 .5-.1.8-.5zm1.2-106.5c-.4-.4-.7-.6-1.1-.7-.4-.1-.7-.3-1.1-.7.4-1.1.7-1.9.8-2.2.6.4.9.8 1.1 1.3.2.4.3 1.2.3 2.3zm.5 19l-.3-.3c-1.1 0-1.8.4-2 1.1 0 .6.1.9.4 1 .3.1.6.3 1 .7.7.4 1.1.1 1.1-.8.1-.7 0-1.3-.2-1.7zm-1.4 13.4c.2-.6.4-1 .7-1.4.3-.4.4-.7.4-1.1-.6-.6-1-.5-1.4.3-.7.7-.6 1.5.3 2.2zm1.4.6c.4-.4.7-.7 1.1-.8-.4-.7-.6-1-.6-.8-.4.2-.7.7-1.1 1.4.2 0 .3 0 .3.1s.1.1.3.1c0 .2 0 .3.1.4.1.1.1.3.1.7.4-.2.8-.3 1.4-.3.7.7 1.2 1.3 1.4 1.7 0 .6-.1 1-.3 1.4.4.4.7.6 1.1.6v-2.5c-.4-.7-.5-1.4-.4-2 .1-.6.3-1.1.7-1.7.4-.6.7-1.2.8-1.8.2-.7.5-1.3.8-1.8.2-.2.1-.6-.3-1.1 0-.4-.3-.5-.8-.3l-.6.6c-.2-.4-.3-.6-.4-.7-.1-.1-.2-.3-.4-.7-.2-.2-.5-.4-.8-.6-.7-.4-1.1-.7-1.1-.8-.2.4-.3.7-.3.8 0 .2-.1.4-.3.6-.9 0-1.5-.4-1.7-1.1-.2-.4-.6-.5-1.1-.3.2.4.3.6.3.7 0 .1.1.3.3.7 0 .2 0 .3-.1.3s-.1.1-.1.3c-.2.2-.3.5-.3.8 1.5.4 2.3.7 2.4.8.1.2.3.9.7 2.2h1.4v.6h.3v-.3c-.2 0-.3-.1-.3-.3.7-.4 1.1-.3 1.1.3-.2.4-.3.7-.3.8 0 .2-.1.4-.3.6-.6.4-1.1.6-1.7.7-.4.1-.9.3-1.3.7zm-.8 64.8l-.6.6c-.4.4-.4.6 0 .6.7.4 1.5.6 2.2.6l-1.6-1.8zm0-148.9c-.2-.2-.4-.3-.6-.3l-.3.6c.2.2.4.3.6.3.2-.2.3-.4.3-.6zm-.9 79.9c.4 0 .6-.1.6-.3 0-.2-.1-.3-.3-.3-.2 0-.3.1-.3.3v.3zm.6 154l-.6 1.1.3.3c0 .2.1.3.3.3h.6c.2-.2.3-.5.3-.8-.1-.3-.3-.6-.9-.9zM34.8 6l.3.3c.4.4.7.6.8.6.2-.2.3-.5.3-.8 0-.6-.1-.8-.3-.8l-2.5-1.7c-.4.7-.7 1.2-.8 1.4-.2.4-.4.6-.7.7-.3.1-.3.3-.1.7.2.4.1.6-.1.6-.3 0-.4.2-.4.6.4.3.7.2.7-.5.2-.6.7-.8 1.4-.8.4 0 .6 0 .7-.1.1-.2.3-.2.7-.2zm-3.1 239.4h.3l-.3-.3h-.3c.1.2.1.3.3.3zm.9-234.1c.4-.4.7-.6.8-.6l-.6-.6c-.6-.2-.8 0-.8.6l.6.6zm0 2.8c0-.2 0-.3.1-.3s.1-.1.1-.3c0-.2-.1-.3-.3-.3l-.3.3c.1.2.2.4.4.6zm.8 60.9c0-.2-.1-.3-.3-.3l-.2.3.3.3.2-.3zm-.3 80.7c0 .4 0 .6.1.7.1.1.1.3.1.7 0 .7.1 1.3.3 1.7 0 .6.3.8.8.8.7 0 .9-.2.6-.6 0-.4.4-.7 1.1-1.1.2 0 .3 0 .3-.1s.1-.1.3-.1c-.6-.4-1.1-.8-1.5-1.3-.4-.4-1.1-.7-2.1-.7zm1.4 88.3c.4-.9.3-1.7-.3-2.2-.6 0-.9.2-1.1.6 0 .5.5 1.1 1.4 1.6zm1.7-169.3c.4-.4.4-.7 0-1.1-.4-.4-.5-.7-.3-1.1 0-.6-.3-.8-.8-.8-.6 0-.9.2-1.1.6.4.4.6.9.7 1.5.1.6.6.9 1.5.9zm-1.9 165.7c.2 0 .4.1.6.3v-.3c0-.2 0-.3-.1-.3s-.1-.1-.1-.3c-.4.2-.4.4-.4.6zm0 8.4c.2-.2.5-.3.8-.3 0-.2 0-.3.1-.4.1-.1.1-.3.1-.7H35c-.2 0-.5.2-.8.6v.8zm1.3-86.9c.4-.7.6-1.4.6-2 0-.2-.1-.3-.3-.3-.4.2-.6.3-.7.4-.1.1-.3.2-.7.4v.6c0 .2.1.3.3.3.2.2.5.4.8.6zm-.8 77.4c.2 0 .5-.2.8-.6v-.6h-.8c-.2.2-.3.6-.3 1.1h.3zM37 10.2c-.4.7-.7 1.4-1 2-.3.6-.7 1-1.3 1.4.4.4.4.8.1 1.4-.3.6 0 1 1 1.4.2-.7.4-1.3.7-1.8.3-.5.6-1.1 1-1.8.3-.9.1-1.7-.5-2.6zm-.2 142.7c.2.7.7 1.1 1.7 1.1h.3c.2 0 .3-.1.3-.3v-.8c-.7-.7-1.4-.7-2.3 0zm1.6-84.1c0 .7-.2 1.3-.6 1.7-.4.4-.6.7-.6.8-.1.2-.2.5-.2.7s.2.4.6.4c.4 0 .7-.1.8-.3.2-.4.3-.7.4-1 .1-.3.2-.6.4-1 .1-.4-.2-.9-.8-1.3zm-.5 169.9c-.2-.2-.3-.4-.3-.6-.2 0-.3 0-.3.1s-.1.1-.3.1v.6c.2-.1.5-.2.9-.2zM37.3 7.4c.4.7.9.8 1.7.3-.2-.4-.2-.8 0-1.3s.1-.9-.3-1.3c-.6.4-.9.7-1 1.1-.1.4-.2.8-.4 1.2zm.9 87.7c-.2-.2-.3-.4-.3-.6h-.3c0 .2 0 .3-.1.4-.1.1-.1.2-.1.4l.3.3c-.1-.3.1-.5.5-.5zm.2-5.6h-.3c-.4.6-.4.9 0 1.1 0 .2.2.3.6.3v-1.1c-.2 0-.3-.1-.3-.3zm-.2 70.4h-.3v.3h.3v-.3zm.2 84.7l-.6.6c0 .2.2.5.6.8.6.4 1 .4 1.4 0 .2-.2.3-.5.3-.8-.4-.4-.9-.6-1.7-.6zm1.2-87.5l-.3.3v.3c.2 0 .3-.1.3-.3v-.3zm0 81.1l-.3.3.3.3c.2 0 .3-.1.3-.3l-.3-.3zm1.1 11.7l-.6-.6c-.2-.2-.4-.2-.6 0-.2.2-.3.4-.3.6 0 .4.3.6.8.6l.7-.6zm-.3-69.3c-.9-.4-1.2-.8-.8-1.4l.6-.3h1.1v.3c-.2.4-.3.6-.4.7-.2.1-.3.3-.5.7zm-.8-26c.4.4.8.6 1.3.6s.8.3 1 .8l-.6 1.8c-.2.7-.4 1.3-.6 1.8.6.6 1 .6 1.4 0l.8-2.5c0-.2 0-.4.1-.6.1-.2.1-.4.1-.6.4-.4.7-.6.8-.6.2 0 .3-.2.3-.6-.4-.4-.7-.7-1.1-.8-1-.6-2.2-.4-3.5.7zm.8 98.1c0-.4-.1-.6-.3-.6l-.3.3v.3h.6zm.3-237.2c0 .2 0 .3-.1.3s-.1.1-.1.3l.3.3c.2-.2.3-.4.3-.6l-.4-.3zm2.5 231.1c-.4-.2-1-.3-2-.3-.6 0-.7.4-.6 1.1.2.2.2.3.1.4-.1.1 0 .2.1.4l.3.3c1.3 0 1.9-.6 2.1-1.9zm-2-156.5c1.1 0 1.5-.5 1.1-1.4 0-.6 0-1.1-.1-1.5-.1-.5-.1-1-.1-1.5v-.3l-.3-.4-.6.6c.2.6.1 1.3-.3 2.2-.1.8 0 1.5.3 2.3zm.3-16.5l.3.3-.6.6v-.6l.3-.3zm4.5 4.5c0-.2-.1-.3-.3-.3-.2 0-.3-.1-.3-.3-.2-.4-.3-.6-.3-.7 0-.1-.1-.3-.3-.7-.2-.6-.7-.5-1.4.3l1.1 1.1c0 .9-.4 1.5-1.1 1.7-.4-.2-.7-.5-.8-.8-.2-.4-.5-.7-.8-.8-.4-.4-.4-.8 0-1.4.4-.2.6-.4.7-.6.1-.2.3-.5.7-.8l1.1.6c.4 0 .7.1 1.1.3.2.4.3.7.4 1 .1.3.2.6.4 1 .1 0 0 .2-.2.4zm-3.9 84.1l-.6.6c0 .2 0 .3.1.4.1.1.1.2.1.4l.6-.3c.1-.4 0-.8-.2-1.1zm.3-152.6c-.4.7-.6 1-.6.8 0 .2 0 .3.1.4.1.1.1.2.1.4h.6v-.8c0-.2 0-.3-.1-.4-.1-.1-.1-.2-.1-.4zm-.3 161.8c-.2.7-.1 1.7.3 2.8.4.4.7.7 1 1.1.3.4.7.6 1.3.6.4-.9.3-1.6-.1-2-.5-.4-.9-.8-1.3-1.4.2-.4.3-.8.3-1.4h-.8c-.4.2-.5.3-.7.3zM43.5 3.7c.4-1.1.2-1.8-.6-2-.4 0-.7.1-.8.3v.6c.2.8.6 1.1 1.4 1.1zm1.4 156.5c-.4-.2-.7-.3-.8-.3-.2 0-.5-.1-.8-.3.4.7.5 1.4.4 2-.1.6.1 1 .7 1.4.6-.4.7-.9.6-1.7 0-.6-.1-.9-.3-1.1h.6c.6.2.9.1 1.1-.3.2-.4 0-.7-.6-1.1h-.3c-.4.2-.6.7-.6 1.4zm0-153.7l-.6-.5c-.4-.2-.7-.2-.8 0-.2.2-.2.4 0 .6 0 .2 0 .3.1.4.1.1.1.2.1.4.4.1.8-.1 1.2-.9zm0 231.7c-.4.2-.6.4-.7.6-.1.2-.3.4-.7.6.4 1.1.7 2 1.1 2.8 0 .6-.1.9-.3 1.1 0 .4.1.6.3.6.6-.4 1-.8 1.3-1.3.3-.5.6-1.1 1-1.8-.9-.2-1.4-.7-1.4-1.7-.1-.3-.3-.6-.6-.9zm8.1-72.1c0 1.7.1 2.9.3 3.6v2.2c.4.2.6.1.7-.1.1-.3.3-.5.7-.7.7 0 1.2.2 1.4.6 0 .6.1.9.3 1.1h1.1c.4 1.1.4 2 0 2.5-.2.6-.3 1.3-.3 2.2 0 .7-.2 1.2-.6 1.4-.4.4-.7.4-1.1 0-.4 0-.6-.3-.6-.8.4-.6.6-1.1.7-1.7.1-.6.3-1.1.7-1.7.2-.4 0-.7-.6-1.1-.4-.2-.7-.3-.8-.3-.2 0-.5-.1-.8-.3v1.7c-.4 0-.7-.1-1-.4s-.6-.4-1-.4c-.4.2-.4.5-.1 1 .3.5 0 .7-.7.7-.4-.4-.7-.7-1-1.1-.3-.4-.6-.7-1-1.1.6-.9.7-1.7.3-2.2 0-.2 0-.4.1-.6.1-.2.1-.5.1-.8.6.4 1.2.7 2 1.1.2-.4.2-.7.1-1.1-.1-.4 0-.7.4-.8v-1c-.4-.4-.6-.7-.6-1v-1c-1.3.2-2.1.9-2.5 2.2l.3.3h-.3v-.3c-.6.6-.8.4-.8-.6 0-.2 0-.4.1-.6.1-.2 0-.5-.1-.8 0-1.1-.6-1.5-1.7-1.1-1.1 0-1.5.6-1.1 1.7 0 .2 0 .3.1.3s.1.1.1.3h.8c.2-.2.4-.3.6-.3.4.7.5 1.2.3 1.4l-.6.3-2.5-.8c-.4-.9-.4-1.7-.1-2.4.3-.7.5-1.3.7-1.8.4-.4.7-.4.8-.1.2.3.5.4.8.4 1.1-.7 1.8-1.2 2-1.4 0-.6.1-1.1.3-1.5.2-.5.1-1-.3-1.5.4-.4.6-.5.7-.3.1.2.2.3.4.3.4 0 .7 0 .8-.1.2-.1.5-.1.8-.1.2.4.3.6.4.7.1.1.2.3.4.7.2.2.6.3 1.1.3 0 .7-.1 1.4-.3 2l.8.8c.2.2.3.7.3 1.7.2.2-.3.4-1 .4zm-7.6-78L44.3 87v1.1h1.1c0 .2 0 .4-.1.6-.1.2-.1.4-.1.6 0 .4.1.6.3.6l.6-.3c0-.4.4-.9 1.1-1.7-.4-1.1-1-1.7-2-1.7.2.4.4.7.6 1 .1.2 0 .5-.4.9zm5.9 15.9c-.7 0-1.1-.5-1.1-1.4.4 0 .7-.1.8-.3.2-.2.3-.3.3-.4 0-.1.1-.2.3-.4.2.2.4.3.6.3.2 0 .4.1.6.3.4-.7.7-1.4 1.1-2 .2.4.3.7.3.8 0 .2.1.4.3.6.4.4.7.5.8.3l.3-.6v-2.8c0-.4 0-.6-.1-.7-.1-.1-.1-.3-.1-.7H51c-.2-.4-.4-.6-.6-.7-.2-.1-.4-.3-.6-.7-.2 0-.3 0-.4-.1-.1-.1-.2-.1-.4-.1v2.5h2.2c-.6.6-.8 1-.8 1.4v1.4c-.2.4-.6.5-1.1.3v-.8c0-.6-.1-.9-.3-1.1l-.3-.3c-.2 0-.3-.1-.3-.3l-.3.3c0 .2-.1.3-.3.3-.2.4-.2.7-.1 1 .1.3.1.6.1 1-.4-.2-.7-.3-1-.3-.3 0-.6-.1-1-.3-.4.4-.7.6-1.1.6-.6.6-.7.9-.3 1.1.2.2.3.3.4.3.1 0 .2.1.4.3v1.2c.7-.4 1.4-.9 2-1.7.7.7 1 1.4.8 2.1-.2.7-.4 1.4-.6 2.4.7 0 1.2.2 1.4.6.2.4.5.7.8 1.1.4.4.7.7.8 1.1.4.6 1 .7 2 .3.2-.2.4-.3.6-.4.2-.1.4-.3.6-.7l-1.1-1.1c-.4.2-.7.5-1.1.8l-.6-2.1c0-.9.1-1.6.5-2.4h.6c.2-.2.3-.4.3-.6l-.3-.3c-.8.1-1 .4-.6.9zm-5.9-11.4c.4-.9.4-1.5 0-1.7-.2.6-.2 1.1 0 1.7zm3.1 88.8c.2-.2.3-.4.3-.6.2-.4.1-.7-.3-1.1-.4-.4-.7-.7-.8-1.1 0-.4 0-.6.1-.7.1-.1.1-.2.1-.4.2-.4.5-.7.8-1.1-.7-.7-1.5-1-2.2-.8l-.8.8c.2.2.3.4.4.6.1.2.2.4.4.6-.2.4-.4.6-.6.7-.2.1-.4.3-.6.7.2.4.5.5.8.4.4-.1.7 0 .8.4l1.6 1.6zm-2-173.8c-.5.4-.8.7-.8.9v1.1c.2 0 .3 0 .4.1.1.1.2.1.4.1.2-.2.3-.4.3-.6 0-.4-.1-1-.3-1.6zm.3 3.9c-.3-.3-.6-.5-.8-.5l-.3.6.3.6c.2-.2.3-.3.4-.3l.4-.4zm.3 93.7c-.4-.2-.6-.3-.7-.4-.1-.1-.3-.2-.7-.4v1.7c.4-.2.6-.3.7-.4.1-.2.3-.4.7-.5zm-.6 142.5l-.3.3c0 .2.1.3.3.3 0 .2.1.3.3.3h.3v-.3l-.6-.6zM47.7 2.9c-1.3 1.1-1.5 2.4-.6 3.9l.6-.6V2.9zm-.9 169.6h.6c0-.2.1-.3.3-.4.2-.1.2-.2 0-.4 0-.4-.2-.7-.6-1.1 0-.2 0-.3-.1-.3s-.1.1-.1.3c-.2 0-.3.1-.3.3 0 .4 0 .7.1.8.1.2.1.4.1.8zm0 8.7h-.3v1.1c0 .4.2.6.6.6l.3-.6c0-.4-.2-.8-.6-1.1zm1.7-93.1c-.7.4-1.2.7-1.4.8v.8c.2.2.6.3 1.1.3.4 0 .6-.2.6-.6 0-.2 0-.4-.1-.6-.2 0-.2-.3-.2-.7zm-.8-77.9c0 .6-.1.9-.3 1.1v.3c.2.6.6.9 1.1 1.1.9 0 1.5.5 1.7 1.4 0 .6.2.9.6 1.1.4.2.7.4.8.6.2.2.6.2 1.1 0 0-.6.1-.9.3-1.1 0-.2.3-.6.8-1.1 0-.2 0-.3-.1-.4-.1-.1-.1-.2-.1-.4 0-.4 0-.6.1-.7.1-.1.1-.2.1-.4 0-.6-.4-.8-1.1-.8 0 .2-.2.5-.6.8-.7-.4-1.4-.6-2.1-.7-.6-.2-1.4-.5-2.3-.8zm1.4-7c-.4.7-.4 1.5 0 2.2 0 .2.3.3.8.3.2-.2.3-.4.3-.6-.4-.7-.8-1.4-1.1-1.9zm.8 238.3l-.6-.3-.6.6c.2.2.4.3.6.3l.6-.6zm.3-77.1c-.4-.4-.5-.6-.3-.6 0-.2.1-.3.3-.3.2 0 .3.1.3.3-.2.2-.3.4-.3.6zm.5-162.9l-.5.5.3.3c.3 0 .5-.1.5-.3-.2-.1-.3-.3-.3-.5zm1.4 92.8c-.4 0-.7 0-.8-.1-.2-.2-.4-.2-.6-.2-.2.2-.3.6-.3 1.1 0 .7.3 1 .8.8.3-.1.6-.7.9-1.6zM51 4.6h.6c-.2-.2-.3-.4-.3-.6l-.6.6h.3zm.6 76.5v.6h-.3c0-.4.1-.7.3-.8v.2zm0 81.6h-.3l.3.3v-.3zM53.8 9.3c.4-1.5 1.2-2 2.5-1.7.6-.9.7-1.8.3-2.5H56c-.4.4-.6.7-.7.8-.1.2-.3.5-.7.8-.4-.2-.7-.4-1.1-.6-.4-.2-.7-.4-1.1-.6 0 .7-.1 1.3-.3 1.7-.6.6-.7 1-.6 1.4 1.2.5 1.9.7 2.3.7zm-.5 156.8h-1.7c-.2-.6.1-.9.8-1.1.2.2.3.4.4.6l.5.5zm.8 23.7c-.4-.4-.7-.9-1.1-1.7-.6-.6-.8-.6-.8 0-.6.4-.7.9-.3 1.7.6.6 1.1.8 1.7.8.2-.2.3-.3.3-.4-.1 0 0-.2.2-.4zm-.8 48.1c.6.6.9 1 1.1 1.4.2 0 .5.2.8.6.2.2.4.2.7.1.3-.1.4-.3.4-.7.2-.7.2-1.6 0-2.5h-2c-.4-.4-.7-.6-.8-.7-.2-.1-.5-.3-.8-.7-.9.4-1.2.8-.8 1.4.2.4.2.7.1.8-.1.2-.1.5-.1.8 0 .2.1.3.3.3.3-.3.7-.6 1.1-.8zm-1.2-131.3l-.3-.3v.3h.3zm1.7-87.5c-.2-.4-.3-.7-.3-1.1 0-.2 0-.3-.1-.3s-.1-.1-.1-.3c-.7 0-1.1.2-1.1.6 0 .2.2.5.6.8.3 0 .6.1 1 .3zm-1.1 162.6c-.6.6-.5 1.1.3 1.7 0-.4 0-.7.1-.8.1-.2 0-.5-.4-.9zm.8-77.1l-.8.8c-.2 0 .1.2.8.6.7 0 .9-.2.6-.6 0-.1-.2-.4-.6-.8zm1.7 77.1c-.4-1.5-.7-2.5-1.1-3.1 0-.4-.3-.6-.8-.6-.4.4-.6.7-.6 1.1 0 .2.1.4.3.6.2.7.4 1.4.6 2 .2.6.5 1.2.8 2 .6 0 1 .1 1.4.3.2.2.3.4.3.7 0 .3.2.3.6.1 0-.4.1-.7.3-1.1 0-.2.2-.5.6-.8-.6 0-.9-.2-1.1-.6-.4-.4-.7-.6-1.3-.6zm-1.9-82.4c-.4-.6-.5-.8-.3-.8 0-.4.2-.6.6-.6l.3.6c-.1.1-.3.4-.6.8zm.8 133c.4-.6.7-1 1-1.3.3-.3.3-.7.1-1.3-.4 0-.7-.1-1.1-.3-.4-.2-.7-.2-1.1 0 .3 1.2.7 2.2 1.1 2.9zm2.2-75.7c-.4-.9-.9-1.4-1.7-1.4.2.7.1 1.4-.3 1.8-.4.5-.7 1-1.1 1.5.4.4.7.6.8.6.2 0 .4.1.6.3.4-.9.6-1.5.7-1.7.1-.2.5-.6 1-1.1zm-1.6 71h.3v-.6l-.6.3c0 .2.1.3.3.3zm1.1-21.3c.2.7-.1 1.7-.8 2.8.4.2.6.6.6 1.1 0 .6.4.7 1.1.3.4-.7.6-1.4.6-2v-1.1l-.8-2.5c0-.7-.3-.8-.8-.3-.2 0-.5.2-.8.6l.9 1.1zm-.9 26.3l-.3.6.6.6c0-.2 0-.3.1-.3s.1-.1.1-.3l-.5-.6zm1.4-71.3c-.2 0-.3 0-.4-.1-.1-.1-.2-.1-.4-.1l-.3.3c0 .2-.1.3-.3.3.4.4.7.5.8.3l.6-.7zm-1.1 3.7c.2 0 .3 0 .3.1s.1.1.3.1v-.2h-.6zm.8 38.5l.3-.6c-.4-.4-.6-.5-.6-.3l-.3.3.6.6zm1.2-91.6c0-.7 0-1.3.1-1.8s.1-1 .1-1.5c0-.2-.1-.4-.3-.6 0-.2-.2-.3-.6-.3-.2 0-.3.1-.3.3-.6 1.3-.7 2.4-.6 3.4v.6h1.6zM56 216.7c-.4.7-.4 1.5 0 2.2.6-.8.6-1.5 0-2.2zm.9-189.8l-.3-.6c-.2 0-.3 0-.3.1s-.1.1-.3.1c0 .2 0 .3.1.3s.1.1.1.3c.3-.1.5-.2.7-.2zm.3 78.5c.6-.6.9-.9 1-1.1.1-.2 0-.5-.1-.8-.4.2-.7.3-.8.3-.2 0-.5.1-.8.3l-.3.3c.2.2.4.3.6.4l.4.6zm.8 9.3v-1.4c0-.6-.2-.8-.6-.8-.2 0-.3 0-.4.1-.1.1-.2.1-.4.1-.7.7-.7 1.3.3 1.7.2.2.5.3 1.1.3zm2.2-88.1l.3-.3-.3-.3v.6c.4.4.6.7.6.8 0 .9.6 1.4 1.7 1.4.2-.4.4-.8.6-1.3.2-.5.4-.9.6-1.3.7-.7.7-1.6 0-2.5-.2-.2-.2-.4 0-.6.6-.6.7-1.2.3-2v-.8c.2-.7.1-1.5-.1-2.2-.3-.7-.4-1.6-.4-2.5h-1.1c-.2-.6-.7-1-1.7-1.4-.2-.2-.3-.4-.3-.6.9-1.1 1.3-1.9 1.3-2.2-.1-.4-.6-.8-1.5-1.4-.2.7-.5 1.7-.8 2.8 0 .6 0 1 .1 1.4.1.4.2.7.4 1.1l-1.9-.7c-.4.2-.6.7-.6 1.7.2.4.3.6.4.7.1.1.2.3.4.7.2 1.1-.1 2.1-.8 2.8-.2.2-.3.3-.4.3-.1 0-.2.1-.4.3-.4.4-.5.7-.3 1.1.2.4.5.6.8.6.4.2.8.3 1.4.3.2.4.2.7.1 1.1-.1.4.2.7 1 .8.2-.2.5-.7.8-1.4-.4-.4-.7-.7-.8-1.1-.2-.4-.1-.8.3-1.4.2-.2.1-.7-.3-1.4.2 0 .3-.1.3-.3.4.4.7.6.8.6.6-.4.7-.7.3-1.1-.4-.4-.4-.7 0-1.1.7.7 1.1 1.5 1.1 2.2 0 .7 0 1.4.1 2.1.1.7.1 1.4.1 2.1.6 0 .9-.1 1.1-.3-.2.7-.6 1.2-1.1 1.4-.6.2-.9.6-1.1 1.1l-.3.3h-.7zM58 39.8l-1.1-.6c-.2-.2-.3-.2-.4 0-.1.2 0 .4.1.6 0 .4.2.6.6.6.1-.1.4-.3.8-.6zm1.1 126h-1.7c-.9.4-1.2.8-.8 1.4l.8.8c.8-1.1 1.3-1.8 1.7-2.2.4-.2 1-.3 2-.3.2 0 .3 0 .3-.1s.1-.1.3-.1c0-.4-.2-.6-.6-.6-1-.8-1.6-.4-2 1.1zm-.8 78.5c-.6-.2-.8-.5-.8-.8h-.6l-.3.6c0 .7.6.8 1.7.2zm-1.1-12.8l-.3.3h.3v-.3zm.8 9.7c0-.9 0-1.4-.1-1.5-.1-.1-.4-.2-1-.4.2.4.3.7.4 1 .1.2.3.6.7.9zm.6-84.1c-.4.4-.6.6-.7.6-.1 0-.2.2-.4.6-.6.6-.5.8.3.8 1.1.4 1.5 0 1.1-1.1-.2 0-.3-.1-.3-.3v-.6zm3-54.2l1.1.6c-.1-.8-.5-.9-1.1-.6.2-.7.5-1.3 1-1.7.5-.4.9-.7 1.3-1.1 0-.7-.4-1.3-1.1-1.7h.2v-1.1c-.2 0-.5-.2-.8-.6v-1.1l-.3-.3-.6.3c-.2.4-.2.7-.1 1.1.1.4 0 .7-.4 1.1-.7-.4-1.2-.7-1.4-.8-.4.7-.7 1.2-.8 1.4-.2.2-.4.2-.7.1-.3-.1-.4 0-.4.4 0 .2 0 .3.1.4.1.1.1.3.1.7l.6.6c.6.2.9.5 1 1 .1.5.3 1 .7 1.5.2.4.2.7.1 1-.1.3 0 .6.1 1 .9-.6 1.2-.5.8.3v3.1c0 .9-.6 1.4-1.7 1.4h-.6l-.3.3c0 .4.1.6.3.6.4.4.7.6 1.1.6.2.7.1 1.8-.3 3.1-.2.6-.2 1.1 0 1.7.2.6.1 1-.3 1.4v1.1c.4.4.7.4 1.1 0 .6 0 .9-.1 1.1-.3.2.4.4.7.6.8.2.2.4.5.6.8.7.4 1.4.6 2 .6.7.2 1.1-.2 1.1-1.1 0-.4.1-.6.3-.6.4-.2.5-.6.3-1.1 0-.2-.2-.5-.6-.8-.7.4-1.7.7-2.8 1.1-.7.2-1.3-.1-1.7-.8v-1.4c.6-.6.7-1.4.3-2.5.4.4.7.7 1.1.8.4.2.7.6.8 1.1l.6.6c.6 0 1.2.2 2 .6.4-.4.6-.8.7-1.3.1-.5.3-.9.7-1.3-.4-.2-.7-.3-1-.3s-.3-.3-.1-.8h1.6c-.6-.7-.8-1.5-.8-2.2 0-1.3-.7-2.1-2.2-2.5-.9.6-1.3 1.4-1.1 2.5.9 0 1.4 0 1.5.1.1.1.2.4.4 1-.2.6-.5.9-1 1-.5.1-1 .2-1.5.4-.4.2-.7.2-1 0-.3-.2-.4-.5-.4-.8-.2-.2-.3-.7-.3-1.4.2-.4.4-.7.6-1 .2-.3.4-.6.6-1 .2-.4.1-.7-.1-1-.3-.3-.3-.6-.1-1 .2-.4.3-1.1.3-2.2-.6-.4-1.2-.9-2-1.7-.4-.4-.6-.7-.6-1.1.4-.4.7-.2 1.1.6.2-.1.3.1.3.4zm-4.2 78c.2-.2.3-.4.3-.6h-.3v.6zm2.8-91.4c-.6 0-1.2.2-2 .6-.7-.4-.9-.8-.6-1.4.6-.2 1-.1 1.4.1.5.3.9.5 1.2.7zm-1.1-67.6c-.4-.2-.7-.3-.8-.3-.2-.2-.3-.4-.3-.6l.3-.3c0 .2.2.3.6.3-.1.4 0 .7.2.9zm-.3 84.9l-.3-.3H58l.6.6c.1 0 .2-.1.2-.3zm0 138.4c-.7.9-.7 1.8 0 2.5.4-1 .4-1.8 0-2.5zm-.5-124.9v.3l.3-.3h-.3zm.5 1.6c0-.2-.2-.3-.6-.3 0 .2 0 .3.1.3s.1.1.1.3l.4-.3zm2.3 95.9c-.7-1.3-1.2-2.5-1.4-3.6.2-.4.3-.6.4-.7.1-.1.2-.3.4-.7 0-.4-.1-.7-.3-.8h-.6c-.4.2-.6.4-.7.6-.1.2-.2.4-.4.6-.2.2-.3.6-.3 1.1.2.7.7 1.9 1.4 3.4.5.4.9.4 1.5.1zm-2-179.1l.3-.6-.3-.3h-.6c.1.2.2.5.6.9zm0 143.9l-.6.6c0 .4.3.6.8.6l.3-.6-.5-.6zm3.9-11.8c.4-.7.3-1.1-.3-1.1-.4-.2-.7-.3-1-.4-.3-.1-.6-.2-1-.4-.2-.4-.2-.7-.1-1.1.1-.4-.1-.7-.7-.8-.6.6-.8 1.1-.8 1.7l.8 2.5.3.3.6-1.1c.4.2.7.3 1.1.3.4-.1.8-.1 1.1.1zm-3.6 3.9l.3-.3v-.3c-.2 0-.4.1-.6.3.2.1.3.2.3.3zm0 24.6c.6-.6.7-1 .6-1.4-.2-.2-.4-.3-.6-.3-.2.2-.3.7-.3 1.4.2.1.3.1.3.3zm2.5-162c1.1-.4 2-.7 2.8-1.1.4 0 .6-.3.6-.8l-.6-.6c-1.1-.4-1.8-.8-2-1.4v-.3c.4-.7.4-1.2 0-1.4-.2-.4-.7-.2-1.4.6 0 .4-.1.7-.3.8 0 .4-.3.8-.8 1.4-.9.6-.9 1 0 1.4.6 0 1.2.4 1.7 1.4zM60 6c.4 0 .6-.2.6-.6 0-.2 0-.3-.1-.4-.1-.1-.1-.2-.1-.4-.2 0-.3.1-.3.3-.2 0-.3.2-.3.6-.1.3 0 .5.2.5zm-.3 9.5c.7.6 1 .9.8 1.1 0 .2-.2.3-.6.3-.1 0-.2-.5-.2-1.4zM60 99l.6.6c-.2 0-.3.1-.3.3l-.6-.6c0-.2.1-.3.3-.3zm3.3 33.3c0 .4-.1.7-.3 1-.2.3-.1.6.3 1-.2.4-.3.7-.3 1.1 0 .4-.1.7-.3 1.1h-2v-1.1c-.6-.6-.9-1-1.1-1.4.6-.4 1.4-1.1 2.5-2.2.2.2.4.3.6.3.2-.1.4 0 .6.2zM59.7 146c1.3.4 2.2.4 2.8 0 .2 0 .5-.2.8-.6 0-.4 0-.6-.1-.7-.1-.1-.1-.3-.1-.7-.9.4-1.5.7-1.8.8-.4.2-.9.6-1.6 1.2zm4.2 14.8c.9-.4 1-.8.3-1.4-.6-.2-.7-.5-.3-.8.4-.7.3-1.2-.3-1.4-.2-.2-.3-.5-.3-.8.4-.4.8-.4 1.4 0 .4.4.8.4 1.4 0 .4-.4.5-.8.3-1.4l-.6-.6c-.4 0-.7 0-.8.1-.2.1-.5.1-.8.1-.6-.2-1 0-1.4.6-.4.4-.9.3-1.7-.3-.4-.4-.7-.6-.8-.6-.2.4-.3.8-.3 1.4 0 .6-.1 1-.3 1.4.4.4.9.5 1.7.3.4-.2.8 0 1.4.6.2.4.3.6.3.7 0 .1.1.3.3.7.2.4.3.7.3.8-.1.2 0 .4.2.6zm-2-68.8h-1.1c-.2 0-.3 0-.3.1s-.1.1-.3.1c0 .2 0 .3-.1.4-.1.2-.1.4-.1.5-.4.9 0 1.4 1.1 1.4.4-.2.7-.3.8-.3.2 0 .5-.1.8-.3-.1-.5-.4-1.1-.8-1.9zm-1.7-60.1c0 .2-.1.3-.3.3l.3.3v-.6zm0 199.8H60l.3.3h.3l-.4-.3zm1.4 3.7c-.4 0-.7.1-.8.3-.2.2-.3.4-.3.6.4 0 .7-.1.8-.3.1-.2.1-.4.3-.6zm.3-8.7l-.8-.8c0 .2 0 .3-.1.3s-.1.1-.1.3l.6.6c0-.3.2-.4.4-.4zm1.4-17.6c-.2 0-.5.2-.8.6 0 .6-.2.8-.6.8-.2 0-.3 0-.3.1s-.1.1-.3.1H61c-.4.6-.2.8.6.8.2.2.3.3.4.3.1 0 .2.1.4.3.6-.7.9-1.7.9-3zm-.5-171.3l-.6.3h-.3c-.6.4-.8.7-.8.8 0 .7.3 1.2.8 1.4.6 0 .9-.1 1.1-.3.2 0 .3-.4.3-1.1l-.5-1.1zM61.1 189l.8 1.7c0 .4.2.6.6.6l.8-.8c.4-.6.3-1.1-.3-1.7-.3-.5-1-.4-1.9.2zm.3 5.6v-.3l-.3.3h.3zm1.4-96.1c-.4.7-.8 1.1-1.4 1.1 0-.4 0-.6.1-.7.1-.1.1-.3.1-.7.4 0 .6 0 .7.1.1.1.3.1.7.1h-.2zm-.6 125.4c-.6.6-.5 1.1.3 1.7.4.4 1.1.8 2.2 1.4-.2-.6-.3-1.1-.3-1.7-.4-.4-.7-.6-1.1-.7-.4-.1-.7-.3-1.1-.7zm-.3-88h.3v-.3c-.2 0-.3.1-.3.3zm.6-14v-.3.3zM65 151c-.4.2-.7.5-1.1.8-.2.2-.4.3-.6.4-.2.1-.4.2-.6.4.2.6.6.6 1.1 0 1-.3 1.4-.9 1.2-1.6zm-1.1 11.2h-.3c-.6-.6-.8-.5-.8.3l.2.5c.2-.2.3-.3.4-.3.1 0 .2-.1.4-.3v-.2zm-.3 33.8c-.2 0-.3 0-.3-.1s-.1-.1-.3-.1h-.3c0 .2 0 .3.1.3s.1.1.1.3c.3-.3.5-.4.7-.4zm.3 24.6c.7-.9.7-1.9 0-2.8 0-.9-.2-1.4-.6-1.4-.4.4-.5.6-.3.7.2.1.3.3.3.7-.4.4-.6.7-.6 1.1 0 .4.1.7.3.8 0 .4.3.7.9.9zm-.3-211c0-.2 0-.3-.1-.3s-.1-.1-.1-.3c0 .2 0 .3-.1.3s-.1.1-.1.3v.3c.2 0 .3 0 .3-.1-.2-.2-.1-.2.1-.2zm4.5 207.9c-.2-.2-.3-.4-.3-.6v-.3c-.7-.7-1.1-1.2-1.1-1.4-.4-.7-.9-1.3-1.7-1.7-.9-.9-1.6-.6-2 1.1.6 0 .9.1 1.1.3.2.2.4.3.6.4.2.1.4.2.6.4.4.4.8.7 1.3.8.4.3.9.6 1.5 1zm-2.3-75.2c-.2-.4-.5-.7-.8-1.1h-.8c-.4 0-.6.2-.6.6-.4.2-.5.6-.3 1.1 1.1-.4 2-.6 2.5-.6zM63.3 6h.6l-.3-.6h-.3V6zm0 36.3l.3.3v-1.4c-.2 0-.3.1-.3.3v.8zm.6 159.5l-.6.6c0 .2.2.5.6.8l.6-.6c-.1-.1-.3-.4-.6-.8zm2.5-53.3c.4.6.4.9 0 1.1-.4.2-.6.5-.6.8.2.4.3.8.3 1.3s.2.9.6 1.3c.7-.2 1.3-.5 1.5-1 .3-.5.6-1 1-1.5.6-.6.5-1-.3-1.4-.6-.6-.8-1.4-.8-2.5.2-.6 0-1.1-.6-1.7-.4-.6-.3-1.1.3-1.7.7-.7.9-1.6.6-2.5 0-.2 0-.4-.1-.6-.1-.2-.1-.4-.1-.6-.2-.4-.2-.7-.1-.8.1-.2.1-.5.1-.8-.7.4-1.2.7-1.4.8 0 1.3.1 2.5.3 3.6.2 1.1.2 2.4 0 3.9-.7-.2-1.4-.1-1.8.1-.5.3-.9.5-1.3.7-.6.6-.6 1 0 1.4.4.4.8.5 1.4.3.4.1.8 0 1-.2zm-2.2 20.1c0-.4-.1-.6-.3-.6l-.3.3v.6c.2-.2.4-.3.6-.3zm-.3-47l.3.3h.3c0-.2-.1-.3-.3-.3h-.3zm1.9-22.3c-.4-.7-.7-1.2-.8-1.4 0-.2-.2-.3-.6-.3l-.3.6c-.2.4-.1.7.1 1 .3.3.6.4 1 .4.2 0 .3 0 .3-.1 0-.2.1-.2.3-.2zm-1.6 4.5c0 .6.1 1.1.3 1.7.2.6.4 1 .6 1.4l.6.3.3-.6c-.4-.9-.4-1.7 0-2.2.2-.2.1-.6-.3-1.1h-.8l-.7.5zm.8-97h-.3l-.3.3c-.4 1.1 0 2.1 1.1 2.8h.3l.3-.3c-.4-.4-.6-.8-.6-1.4 0-.6-.1-1-.5-1.4zm.8 175.8c0-.2-.1-.3-.3-.3-.4-.2-.7-.2-.8 0l-.3.3c.2.2.5.3.8.3.3-.1.4-.1.6-.3zm-1.4 17.3l.3.3c.2 0 .3 0 .3-.1s.1-.1.3-.1c-.2-.2-.3-.4-.3-.6l-.6.5zm1.1-54.5c-.2-.4-.3-.6-.3-.7 0-.1-.1-.3-.3-.7-.3.6-.1 1 .6 1.4zm.9-111.2c.2-.4.3-.7.4-1.1.1-.4.2-.7.4-1.1 0-.7-.2-1.1-.6-1.1-.6-.2-1 0-1.4.6-.2.4-.3.8-.3 1.4s.2 1 .6 1.4h.9zm-.9 79.3c0 .2-.2.3-.6.3v-.3l.3-.3.3.3zm1.2 79.1c-.2.4-.6.8-1.1 1.4.4.2.6.3.6.4 0 .1.2.2.6.4-.2.4-.6.8-1.1 1.4.4.2.7.3.8.3.2 0 .5.1.8.3-.4.7-.7 1.4-.8 2-.2.6-.1 1.2.3 2-.2 0-.3.1-.3.3-1.3.6-1.6 1.3-.8 2.2v1.4c-.7 1.7-.7 3.4.3 5.3.2 1.1.1 1.9-.3 2.2.4.4.7.6 1 .6s.6.2 1 .6v-2.5c.2-.4.4-.7.6-1.1.2-.4.2-.7 0-1.1-.4 0-.7-.1-.8-.3-.6-.4-.7-.7-.3-1.1l1.7.8c.4 0 .7.1 1 .3.3.2.6.2 1 0 0-.6-.2-1.4-.6-2.5 0-.4.1-.7.3-1.1.2-.4.1-.7-.3-1.1l1.1-.6c.2 0 .3-.4.3-1.1-.2-.4-.2-.7-.1-.8.1-.2.1-.5.1-.8.4-.9.2-1.6-.6-2-1.3.9-2.1 2-2.5 3.1.2.2.3.3.4.3.1 0 .3.2.7.6h-1.4c-.9-.7-.9-1.6 0-2.5l1.7-1.7c-.7-.7-1.1-1.3-1.1-1.7.2-.4.2-.7.1-.8-.1-.2-.1-.4-.1-.6-.6-.6-.7-.8-.6-.8-.4-.2-.6-.4-.6-.7-.2-.6-.5-.8-1-1zm-.6-89.7c.6-.6.7-1.1.3-1.7-.4-.4-.7-.5-.8-.3-.4.4-.5.7-.3 1.1l.8.9zm-.8 26v-.8.8zm0 29.1c.2.9.8 1.8 2 2.5.4-.4.6-.9.6-1.7-.7-.2-1.5-.4-2.6-.8zm2.2 63.1h-.6c0 .2 0 .3-.1.4-.1.1-.1.3-.1.7v.3c0 .2.1.3.3.3.4.4.6.2.6-.6v-1.1zm-.3 17.1c0 .6-.1 1-.3 1.4-.2.4-.1.8.3 1.4.2-.4.6-.8 1.1-1.4 0-.4-.1-.7-.3-.8l-.8-.6zm2-226.7c-.6.4-1.2.9-2 1.7-.4.4-.4.7 0 1.1l.8.8c.4-.6.7-1.1 1.1-1.5.5-.4.5-1.1.1-2.1zm-2 175.5l-.3.3v.6l.6-.3c0-.4-.1-.6-.3-.6zm.9-164.8c.7-1.5 1.1-2.5 1-2.9-.1-.5-.6-1.1-1.5-1.8-.4.2-.5.6-.3 1.1.6.9.7 1.9.6 2.8-.3.1-.2.4.2.8zm.5 18.4c.2-.4.4-.7.7-1.1.3-.4.3-.8.1-1.4-.2 0-.3 0-.4.1-.1.1-.3.1-.7.1-.4 0-.7.1-.8.3.2.4.4.7.6 1 .1.3.3.6.5 1zm-.8 92.2v-.6l-.3-.3v.3c0 .2 0 .3.1.3s.2.1.2.3c0 .2 0 .4.1.6.1.2.1.4.1.6.7.2 1.1-.1 1.1-.8-.5-.1-.9-.2-1.3-.4zm1.1-6.4l-.3-.3c-.2.4-.3.6-.4.7-.1.1-.2.3-.4.7 0 .6.1 1 .3 1.4h.8c.2-.2.3-.4.3-.6 0-.4 0-.7-.1-1-.2-.2-.2-.5-.2-.9zm-.6 64v-.3c-.4 0-.6.1-.6.3l.3.3c.2 0 .3-.1.3-.3zm.6 28.8l-.6-.6c-.4 0-.6.2-.6.6l.3.6c.2-.1.5-.3.9-.6zm1.1-187c.9-.4 1.3-.9 1.1-1.7-.4-.7-.7-1.2-.8-1.4-.2-.2-.4-.3-.6-.4-.2-.1-.4-.2-.6-.4-.2 0-.3 0-.4.1-.1.1-.2.1-.4.1.2.9.3 1.5.4 1.8.2.4.6 1 1.3 1.9zM68.6 158l.3.3c.4-.6.7-1.4 1.1-2.5-.2 0-.3-.1-.3-.3l-.3-.3c-.4 0-.6.1-.6.3-.4.4-.6.7-.6.8.1.7.2 1.3.4 1.7zm.3-26.3c.4.4.7.9 1.1 1.7.6.6.9.7 1.1.6.2-.6.2-1.1 0-1.7-.6-.7-.7-1.6-.3-2.5v-.3l-.3-.3h-.3c-.2.4-.3.9-.3 1.7-.3.3-.6.6-1 .8zm1.1 3.4c-.7-.4-1.1 0-1.1 1.1 0 .4.3.6.8.6.7.4 1.1.1 1.1-.8.1-.7-.2-.9-.8-.9zm-.5 81.6l.8-2.5c-.2 0-.3-.1-.3-.3l-.3-.3-.6.3c-.2.4-.3.9-.3 1.7.1.5.3.9.7 1.1zm.5-25.8c-.6.4-.7.7-.6.8 0 .7.4 1.1 1.1 1.1.3-.6.1-1.3-.5-1.9zm0 36.9c.6 0 .9-.1 1.1-.3 0-.6-.2-.8-.6-.8-.5 0-.7.4-.5 1.1zm.6-77.9v-1.1c0-.2 0-.3-.1-.3s-.1-.1-.1-.3c0 .2 0 .3-.1.3s-.1.1-.1.3c0 .2 0 .3.1.4 0 .1.1.3.3.7zm0-114c.6-.6.8-.9.8-1.1l-.6-.6-.6.6c0 .2 0 .3.1.4.2.1.3.3.3.7zm.3-20.2c-.4 1.1-.4 1.9 0 2.2.6.4 1.1.3 1.7-.3-.4-1-1-1.7-1.7-1.9zm.5 25.2c1.1.4 1.9.7 2.2.8.4 0 .6-.1.8-.3.2-.2.2-.5 0-.8-.2-.4-.4-.6-.6-.7-.2-.1-.4-.2-.6-.4-.6 0-1.2-.4-2-1.1 0-.4-.2-.6-.6-.6-.4.4-.3.8.3 1.4.4.4.5.9.5 1.7zm.3 182.7l-.8-.8v.3c0 .4.1.6.3.6h.5zm0-195c.4.4.6.7.6.8 0 .2.1.5.3.8.7-.4.9-.9.6-1.7l-.8-.8c-.5.4-.7.7-.7.9zm.6 80.9c0-.1-.1-.1-.3-.1 0 .2-.1.4-.3.6h.6l.3-.3c-.3-.1-.3-.1-.3-.2zm-.6 104.6c.2 0 .3 0 .3.1s.1.1.3.1v-.3c0-.2-.1-.3-.3-.3 0 .4-.1.4-.3.4zm1.1-91.1c0 .6-.2 1-.6 1.4 0-.4.1-.7.3-.8 0-.2.1-.4.3-.6zm.9 13.5c-.4.4-.4.7 0 .8.2-.2.3-.5.3-.8h-.3zm-.3 76c.2.6.5 1.6.8 3.1l.3.3c.4 0 .6-.1.6-.3.2-.2.3-.6.3-1.1-.2-.6-.3-1.1-.4-1.5-.1-.5-.2-1-.4-1.5-.2-.2-.4-.2-.6 0-.2 0-.3.1-.3.3-.2-.2-.3.1-.3.7zm1.1-7.6c.6-.4.7-.7.3-1.1h-.6c-.7 0-.8.3-.3.8l.3.3h.3zm0-185c-.2 0-.3 0-.3-.1s-.1-.1-.3-.1v.3h.6zm-.3 188.7c.4 0 .6-.1.6-.3.4-1.1.3-1.8-.3-2-.4.2-.6.7-.6 1.7 0 .2.1.4.3.6zm3.1-93.9l-.3-.6c-.4-.2-.7-.2-.8 0-.6.4-.8.9-.8 1.7 0 .4.2.6.6.6h.9c.2-.8.4-1.4.4-1.7zm.3 28.2c-.4-1.1-.8-1.9-1.4-2.2 0-.2-.2-.3-.6-.3 0 .2 0 .3-.1.3s-.1.1-.1.3c.1 1 .9 1.7 2.2 1.9zm-.3-15.4v-2.2c.5.7.5 1.5 0 2.2zm3.1 19c-.2.9-.4 1.7-.6 2.2-.2.6-.5 1.2-.8 2-.2.4-.6.3-1.1-.3.4-.4.6-.7.8-1.1.2-.4.2-.8 0-1.4 0-.5.5-1 1.7-1.4zm-1.2-7.2l-.3.3h.3v-.3zm1.4 5.5l-.3.3v-.3c.2 0 .3-.1.3-.3v.3z" fill="#ffa93a"/></svg>