<svg xmlns="http://www.w3.org/2000/svg" viewBox="0 0 61 104.1"><path d="M61 89.9c-1.6.2-2.3 1.3-3.2 2.8-2.7 4.7-6.5 8.2-11.6 10.3-4.7 2-11.3 1.2-14-5.3-1.9-4.6-4.5-9-7-13.4-8-14.2-14-29.2-20.4-44.1-1-2.3-1.3-4.5-1.6-6.9C2.5 26 1.6 18.7.7 11.4c-.2-2-.5-3.9-.8-5.9C-.4 2.6.3 1 2.2.2 3.9-.6 5.6 0 7.5 2c1 1.1 1.8 2.3 2.8 3.4 4.4 5 8.8 9.9 13.3 14.8.9 1 2.1 1.6 3.2 2.5.6.5 1.3 1.1 1.7 1.8 3 5.7 6 11.3 8.9 17 3.1 6.2 6.3 12.4 9.3 18.6 4.8 10 9.5 19.8 14.3 29.8zm-20.5 1.8c3.1-1.5 5.6-2.7 8.3-4-.3-1-.5-1.8-.9-2.5-3.1-6.4-6.1-12.9-9.3-19.3-4.8-9.7-9.7-19.3-14.7-29-.7-1.4-1.7-2.8-2.7-4.4-2.3 2.9-5.1 1.8-7.8 1.6.2.6.2 1 .4 1.3 2.5 5.8 4.9 11.6 7.5 17.4 4.9 10.8 9.9 21.6 15 32.3 1.1 2.3 2.7 4.2 4.2 6.6zM6.7 38.6c.3.7.4 1.4.7 2 3 7 6.2 14.1 9.2 21.1 4.3 10.1 9.2 19.8 14.6 29.3.7 1.3 1.7 1.8 3.1 1.7 1.1-.1 2.2-.4 3.4-.6C28 74 20.1 55.3 11.9 36.7c-1.7.6-3.4 1.2-5.2 1.9zm43.7 46.3c2.8-.7 2.1-2.9 2.8-4.3.2-.5.2-1.2 0-1.7-3.4-7.6-6.7-15.4-10.5-22.9-4.1-8.2-8.6-16.1-12.9-24.2-.9-1.7-1.9-3.4-2.8-4.9-1.6 1-3 1.9-4.3 2.6 9.2 18.4 18.4 36.9 27.7 55.4zm-39.8-55c2.3 1 4.1 2 5.9 2.4 2 .4 3.1-1.2 2.5-3.1-.2-.7-.4-1.5-.7-2.3 2.3-.7 5.1 1.2 6.4-2.1-4.1-4.6-8.1-9.1-12-13.5-1.6 1.1-2.9 2.2-4.3 3-1.4.7-3.1 1-4.7 1.6 1.3 6.8.1 13.8 3 20.1 3.4-.6 3.9-1 3.5-4.2-.1-.8-.3-1.6.4-1.9zm47 57.8c-.7-1.2-1.5-2.6-2.4-4.3-2.4 4.1-5.5 6.6-9.3 8.4-3.8 1.9-7.8 3-12.1 3.3 1.7 5.6 6 8.2 10.6 6.1 4.9-2.2 9.4-5.4 11.8-10.5.4-1 .8-1.9 1.4-3zM10.8 8.8C9 6.8 7.5 4.7 5.6 3 4 1.5 2.3 2.2 2.4 4.3c.1 3 .6 5.9 1 8.9 4-.7 5.3-1.4 7.4-4.4z" fill="#fff" opacity=".7"/></svg>