<svg xmlns="http://www.w3.org/2000/svg" viewBox="0 0 74.1 142"><path d="M24 142c-5.3-2.8-22.1-6.1-23.9-12.3-.9-3.1 2.4-9.2 4.2-14.3 8.9-25.6 18.6-43.8 28.4-67.6 1.9-4.6 3.7-9.2 5.7-13.5 2.2-4.8 3.4-9.7 5.6-13 2.5-3.7 7.3-6.6 11-9.9C59.4 7.6 63.3 3.8 66.9 0c.9 0 .8.7 1.5.8C69.7 11.9 72.3 22.2 74 33c-6.9 12.2-10.5 25.9-16.7 38.5-1.9 3.9-4.5 7.3-6.4 11.3-3.7 7.9-7.2 16-10.3 24-2.5 6.5-3.5 13.9-8.1 17.9-1.5 7.6-3.9 14-8.5 17.3zM66.6 7.5c.3-1.6 0-2.7-1-3.4-1.4 1-.8 3.2 1 3.4zm.9 4.4c.1-1 0-1.8-.7-2.3-.4 1.2-.3 2 .7 2.3zm-9.7-.6c-2.3 3.6-8.2 5.3-8.7 9.2 1.1-.6 2.7-.6 4.4-.3 1.1 2 1.1 4.7 3.3 6 2.9 0 3.8-2.9 7-2.5 1.4 3.1 1 7.5 5.5 8.5 3.6-4.9-1.7-10.8-.8-16.8-3.9-1.2-7.5-2.5-10.7-4.1zM41.4 57.4c2.9-6.5 5.1-12.9 7.7-18.6 1.5-3.1 4.8-6.1 5-9.9.3-4.2-2.1-7.8-7.5-6.7-5 8.6-8.6 18.7-12.6 27.9-2.1 4.8-4.7 9.9-6.2 13.4-1.7 4-2.6 8.2-4.3 12.1-1.7 3.7-4.1 7.1-5.7 10.8-1.5 3.5-2.3 7-4.1 10.6-1.5 3-3.8 6.1-3.9 9.5 2.2 2 6 5.2 8.8 5.3 5.9-17 15.5-38.2 22.8-54.4zm16.4-25.1c2.2-.2 4-.9 5.3-2.3-1.9.5-4.5.2-5.3 2.3zm-5.5 6.6c3.6-.1 5.4-2.8 9.2-2.7-2.5 2.2-6.8 1.7-8.5 5 3.3-.5 5.1-3.2 9.2-2.7.6-2.4 2.2-3.4 2.3-6.6-.5-.1-1.1-.2-1.6-.3-.9 4-8.4 3.1-10.6 7.3zm-16.7 75c2.3-5.1 4.4-10.6 6.7-16 9.1-21.5 20.8-41 28.3-63.9-1.4-1.3-3.5 2-5.7 1.7-1 5.2-4.2 9.7-6.4 14.5-3.7 7.8-6.2 13.8-9.4 21.4-5.5 13-11.7 26.6-16.8 39-.7 1.7-3.5 4.8-1.6 6.2-.6 1.4 2.6.1 1.9 1.4 2.7.3 2.3-2.9 3-4.3zm16.2-69.2c3-1.6 7.2-1.6 9.5-4.3-2.9-1-9.1 2-9.5 4.3zm-.6 3.1c2.7-.4 8.9-1.8 7.3-4.1-2.3 1.5-6 1.1-7.3 4.1zm-2.7.1c.2-1 1.6-.4 1.4-1.9-1.2-.8-2.6 1.3-1.4 1.9zm.4 3.8c4.1.1 7.6-.6 8.9-4.3-3.8.1-6.4 2.2-8.9 4.3zm-2.4-1.5c.5.1 1.1.2 1.6.3.4-1.2.2-2-.7-2.3-.3.7-1 .9-.9 2zm.1 5.4c3.8-.1 7.1-.8 8.8-3.8-3.6.3-6.2 2.1-8.8 3.8zM47 53c-.7-.1-1.4-.2-2.1-.4-1.2 2.3 2.4 2.3 2.1.4zm-2.1 8.8c2-1.8 4.8-2.3 7.6-3 .6-1.1.9-2.6 1.7-3.5-4.6-.4-8.3 4-9.3 6.5zm-2.8-2.7c1.9.4 2.9-.3 3.1-2.1-.5-.1-1.1-.2-1.6-.3-.6.6-.8 1.8-1.5 2.4zm2.4 5.3c1.6-1 3.6-1.5 6.2-1.1-.3-1.4 2-2.2.6-3.1-2.1 1.4-7.2 1.6-6.8 4.2zm-3.6-1.2c1.6 0 2.6-.7 3.1-2.1-2.1-.8-3.1-.1-3.1 2.1zm.3 7.1c2.7-1.6 9.2-1.3 8.2-6.1-2.5 1.9-8.2 2.6-8.2 6.1zm-4.3 3c.6-.8 1.5-1.4 2.5-1.7.6-1.4-.9-1.2-.7-2.3 1.3-.8 2.2-2.2 3.3-3.2-.7-.1-1.4-.2-2.1-.4-1 2.1-3.5 5.5-3 7.6zm.1 2.1c-1-1.5-2.6-.4-2.5 1.7 4.3-.7 6.7-4 11.6-3.9.3-1 2-3.2.8-4.2-3.6 1.7-7.1 3.5-9.9 6.4zm7.4-1.4c-4 3.5-10.6 3.3-12.6 9.6 4.3-3.3 11.1-3 13.6-8.9-.1-.4-.4-.6-1-.7zM33.1 85.5c-1.4.8-4.8.6-2.8 3.3 1.7-1.7 4-2.7 5.7-4.4 2.7-.9 5.7-1.5 7.3-4.1-4.3-.2-7.3 3.5-10.2 5.2zm-.2 3.7c3.3-1 7.2-1.2 8.5-5-3.3 1-6.7 1.9-8.5 5zM30.1 93c3 1.3 4.8-2.3 6.6-.5-6 3.8-12.7 6.5-14.8 15.7 3.5.3 3.9-3.6 6.3-4.8-.9-.3-2.9 1-3.2-.6 3-3.3 6.8-5.6 11.5-6.6.1-3.2 4.2-6.1 2-8.3-2.6 2.1-5.8 3.1-8.4 5.1zm.5-2.6c-4.1-.5-1 3.9 0 0zm-3.9 6.4c1.3.2 3.7-1.2 2.6-2.2-.6 1.1-2.9-.2-2.6 2.2zm1.1 6.1c3.2-.2 5.9-1.2 7.3-4.1-2.2-.9-5.8 1.9-7.3 4.1zm3 1.6c.3-.6 3-.8 1.4-1.9 0 .9-2.8 1.1-1.4 1.9zm-2.8 3.2c1.5 0 3.6.7 3.5-1.5-1.9-.6-2.6.7-3.5 1.5zm-1.6 3c-.3 1 .4 1.3.2 2.2-1.5.2-2.7.3-4.2-.7.6-.8 2.1-1.3.4-2.1-1.2.5-2.3 1.1-2.2 3.4 1.6 1.3 4.6 1.7 6.6 2.8.9-1.8 3.5-4.6 2.4-7.1-.8 1-2.1 1.1-3.2 1.5zm-18.6.5c6.7 4.3 14.4 10.4 24.7 10.8-1.9-4.4-9.2-4.9-14.5-6.9-2.3-2.5-6.2-3.9-9.3-5.9 0 1-.8 1-.9 2zm-1.1 12.2c3.7-.9 7.6-1.4 10-4.2-4.2.2-7.4 1.8-10 4.2zm1.4 7.2c1-.6 2.1-1 2.6-2.2-1.3-.3-3.7 1.2-2.6 2.2zm13.2-9.5c-5.9 2.2-13.2 3-16.7 8.4 6.4-1.6 11.6-4.9 16.7-8.4zm4.6 4.5c1.5.7 1.7-.6 3.3 0-.4.7-1 1.2-1.4 1.9 1 .1 1.1.8 2 .9.2-1.2.4-2.4.7-3.6-1.6-1.7-4-.6-4.6.8zm-21.2-3.1c.1-.3.2-.6.6-.4.1-.6.1-1.3-.9-1.2 0 .5-.3 1.4.3 1.6zm16.6 13.6c1.9-1.5 4.1-2.5 7-2.5.3-1.6.6-3.1.8-4.7-1-.3-1.2.5-1.8.8-.3 1 .5 1.2.8 1.8-1.6 2-7.2 1.8-6.8 4.6zm-18.1-8c.5-.3 2.1-3.4 0-3.2.1 1-1.2 2.9 0 3.2zm8.8 2.1c2.4.6 3.8-.3 4.2-2.5-1.8.3-3.2 1.1-4.2 2.5zm3.1 1.1c.4.1.7.1 1.1.2.1-.3.1-.7.2-1-.4-.1-.7-.1-1.1-.2-.1.3-.2.6-.2 1zm-7.7.3c.3 2.5 5.1 3.9 6.9 3.9.2-5.4-4-2.9-6.9-3.9zm10.2 3.9c.8-.5 3.4-1.7 2.1-2.9-.7.6-3.6 1.3-2.1 2.9z" fill-rule="evenodd" clip-rule="evenodd" fill="#fff" opacity=".7"/></svg>