<svg version="1.1" id="OBJECTS" xmlns="http://www.w3.org/2000/svg" x="0" y="0" viewBox="0 0 270 278" xml:space="preserve"><style>.st1{fill:#fff}</style><g id="XMLID_28_" opacity=".7"><path id="XMLID_2903_" class="st1" d="M219.4 226.1c-2.4-8.5-.6-16.3 4-19.6 5.7-4 11.4-3.1 19.8 3.3 7.1-6 13.1-6.7 18.5-1.9 7.1 6.3 8.3 14 3.3 21.8 10 9.7 3.9 20.9-10.3 21.9.1 1.9.4 3.7.4 5.6-.1 7-3.7 11.3-10.6 11.5-7.2.2-14.2-1.3-19.5-7.5-.7.5-1.7 1-2.4 1.7-8.2 9.6-19.5 12.5-31.2 14.3-8.7 1.3-17.3 1-25.9-1.4-19.9-5.5-37.5-14.7-50.5-31-6-7.6-10.9-16.2-13.8-25.6-.5-1.5-1.1-2.9-1.5-3.8-1.6 3.6-3.3 7.3-5 11-1.8 3.8-6.5 5.4-9.8 3-2.6-1.8-5.2-4-6.9-6.5-7.3-11-10.3-23.2-8.9-36.4.2-2.3.4-4.6.9-6.8 1.8-7.8 7.5-11.6 14.7-13.8.8-.3 1.7-.4 2.8-.6-.6-5.4-1.2-10.7-1.7-15.9-.7-7.4-1.8-14.8-2-22.2-.5-17.8 2-35.3 7.9-52.2 1.3-3.8 3.5-7 6.6-9.5 4.1-3.3 7.5-3.4 11.5.2 5.2 4.7 9.6 9.9 12.6 16.3 5.2 11.2 8.3 23 11.3 34.8 3.4 13.1 4.3 26.5 4.3 40 0 .7.1 1.3.2 2.4 1.4-.2 2.6-.4 3.8-.6 6-1 10.4 1.2 13.5 6.3 2.9 4.7 4 10 4.4 15.2.6 7.9.6 15.9.6 23.9 0 2.1-.7 4.2-1.4 6.2-1.8 4.5-6.7 6.4-11.6 4.3-4.3-1.8-7.9-4.7-10.2-8.9-1.8-3.2-3.8-6.3-6.5-10.5-.6 4.5.6 7.7 1.1 10.8 2.2 12.7 7 24.2 16.2 33.5 6.6 6.7 14.3 11.5 23.4 14.2 10.1 3 20.2 3.7 30.6 2.2 4.3-.6 8.2-2.3 12-5-3.9-4.1-7.9-8.1-6.5-14.3 1.5-5.9 5.4-9.5 11.8-10.4zM103.9 105.7c-5.2-1.1-10.3-2.5-15.7-1.1-2.6 25.4.9 50 6.4 75.1 4.6-.4 8.8-.7 12.8-1.1.3-3.3.4-6 .8-8.6.2-1.4.5-2.8 1.1-4.1 1.1-2.4 3.3-2.6 5.5-2.1 1.8.4 3.8 1.7 3.1 3.6-1.4 3.5 1.1 5.1 2.5 7.5 2.5-.3 4.8-.6 7.1-1 2.2-.3 4.5-.7 6.6-1 3-20.6-1-55.7-8-71.4-3 .7-6.1 1.5-9.1 2.2-3.1.6-6.3 1.1-9.4 1.6-1.4.1-2.5.3-3.7.4zm122.9 123.1c-.3.4-.7.8-1 1.2-1.7-.2-3.4-.5-5.1-.5-3.9-.1-6.8 1.7-8.7 5.1-2 3.7-1.3 7.2 1.1 10.5 2.5 3.3 5.3 3.8 8.8 1.6 1-.7 1.9-1.7 3-2.2.6-.3 1.9-.3 2.4.1s.7 1.8.4 2.3c-.6 1-1.5 2-2.5 2.6-5.2 2.8-10.3 5.7-15.7 8-3.2 1.4-6.8 1.9-10.3 2.4-8.8 1.4-17.4.2-25.8-2.2-18.2-5.1-31.8-15.9-39-33.4-3.1-7.6-4.5-16-6.6-24-.4-1.6-.6-3.3-1.1-6-1.1 1.5-1.9 2.1-1.9 2.7-.1 1.8.4 3.6.3 5.3-.3 3.5-.5 7.1-1.4 10.5-1.2 4.5-4.8 5.6-8.7 2.8-2.2-1.5-4-3.4-4.5-6.3-.6-3.8-1.5-7.6-2.3-11.5-2.4.1-4.4.1-6.7.2-.1 1.6-.2 2.9-.2 4 .7 9.7 3.4 18.7 7.9 27.4 5.7 11 13.3 20.1 23.1 27.5 7.4 5.6 16 9 24.6 12.6 16.4 6.9 32.7 5.9 49 .5 3.6-1.2 6.9-3.6 10.1-5.8 4.6-3.2 7.9-7.6 10.7-12.4.7-1.3 1.4-2.8 3.2-1.8 1.9 1 1.5 2.6.5 4-.6.8-1.3 1.6-1.7 2.1.3 6 4.1 7.8 8.8 8.7 1.4.3 2.8.6 4.2.8 7.7.9 12.5-5.5 9.5-12.7-.5-1.3-1.3-2.4-2.2-4.2 1.6-.3 2.7-.7 3.8-.8 2.1-.2 4.3 0 6.4-.4 3.6-.6 6.1-2.8 7.3-6.3 1.5-4.4-1.5-8.2-6.2-7.8-1.1.1-2.3 0-3.4-.1-.6-2.4.6-3.2 2.1-4.1 6.4-4.1 7.7-9.6 3.6-15.8-2.1-3.2-5.2-5.5-9.4-5.1-4.2.4-6.8 2.7-7.9 6.8-.3 1-.8 1.8-1.7 3.8-1.1-1.7-1.9-2.7-2.5-3.8-.5-1.1-.4-2.5-1.1-3.4-3-4.2-10.9-5.4-15-2.3-4.5 3.4-5.3 11.8-1.6 15.8 1.3 1.1 2.3 2.4 3.4 3.6zM88.6 169.6c-8.1 0-13.9 4.3-15.3 11.5-2.7 14.1-.4 27.4 7.6 39.5 1.4 2.1 3.6 3.9 5.8 5.2 2.5 1.5 4.7.5 6-2.2 1.1-2.2 2.2-4.5 2.8-6.9 1.5-6 2.8-12.1 1.3-18.3-.8-3.4-2.1-6.7-3-10.1-1.8-6.2-3.5-12.5-5.2-18.7zm57.2 40.4c6 3.1 10.5 1.1 11.2-4.3 1.4-11.1 1.5-22.2-1.2-33.2-.7-2.7-2.2-5.2-3.8-7.5-2.2-3.1-6.3-4-10.1-2.8-3.5 1.2-4 3.8-4.1 7.1-.2 5.6-.7 11.3-1.2 16.9-.3 3.1-2 6.6-1 9.2 2.1 6.1 5.3 11.9 10.2 14.6zM121.7 88.6c-2-7.6-6.7-13.5-12.2-18.9-4.2-4.1-7.5-4-11.2.7-4.6 5.9-5.7 13-7.2 20 7.2 1.8 25 .7 30.6-1.8zm-10.1 79.3c-.2 4.5-.8 8.9-.4 13.2.5 4.8-1.6 9.9 1.5 14.4-2 4.3.4 8.2 1 12.3.5 3.4 2.5 5.2 6.6 5.5.6-2.9 1.8-5.6 1.7-8.2-.4-13.1-.8-26.2-10.4-37.2zm12.2-74.2c-11.8.6-22.9 1.1-34.2 1.6-.1 1.4-.3 3.1-.5 4.8 13.4 2.4 26.2 1.3 35.9-3.2-.4-1.1-.8-2.2-1.2-3.2zm10.1 83.5c-4.5.1-8.4 0-12.1 1.7.8 4.3 1.5 8.2 2.3 12.6 2-.3 3.9-.1 5.3-.8 1.5-.8 3.2-2.3 3.6-3.8.8-3 .6-6.2.9-9.7zm-26 16.8v-12c-4.3.5-8 1-11.9 1.5 1 3.8 1.9 7.2 2.7 10.4 3.4.1 6.2.1 9.2.1z"/><path id="XMLID_2689_" class="st1" d="M42.8 30.6c4.1 2.4 7.5 2.8 11.1 1.6 7.9-2.4 14.9 2.6 15.3 11.3.2 5.6-2 9.9-5.4 13.9-1.3 1.5-2.6 2.9-4.1 4.1-1.8 1.5-2.8 3.2-3.7 5.5-4.2 10.7-15.1 17.5-26 13.2-5.7-2.2-11.3-3.9-17.5-3.3-1.2.1-2.4-.5-3.7-.6-6-.6-10.8-5.5-8-13.7 1.5-4.3 4.1-7.8 8-10.2 2.2-1.3 3.4-3.1 4.3-5.6 2.7-7.3 7.1-13.5 14.6-16.8 5.5-2.4 10.8-1.3 15.1.6zm11.6 20.7c-1.8-3.9-3.3-7.9-5.4-11.5-1-1.8-2.7-3.3-4.5-4.4-13.2-7.8-24.7 1.2-27.8 12.9-1.4 5.6.7 11.4 3.9 16.8 11.9-3.2 23.5-6.3 33.8-13.8zm-40.9 4.4c-.4-.3-.7-.6-1.1-.9-3.3.9-5.3 3.3-6.9 6C1.1 68 4 73 12.3 73.2c4.4.1 8.9 0 13.3-.3 2.4-.2 4.9-.9 7.2-1.7 3.5-1.3 6.9-2.8 10.3-4.4 6.1-2.9 12.2-5.8 17-10.7 3.7-3.7 5.8-7.9 5.3-13.3-.3-3.1-1.6-5.5-4.4-6.8-3-1.3-6.1-1.3-9.5 1.4 1.8.9 2.9 1.8 4.2 2.1 5.9 1.4 7.5 4.5 5.2 10-1.7 4.1-5.6 5.9-9 7.9-9 5.2-18.8 8.4-28.8 10.8-2.9.7-6 .9-8.9.5-5.2-.8-6.6-4.6-3.6-9 .8-1.4 1.9-2.7 2.9-4zm16.6 20.6c10.3 3 18.1-.6 20.8-8.9-6.8 2.9-13.4 5.7-20.8 8.9zm-16-16.1c-1.5 2.5-2.4 4.1.4 4.8.4.1.9-.1 1.8-.1-.7-1.5-1.2-2.7-2.2-4.7z"/><path id="XMLID_2657_" class="st1" d="M172.7 189.4c.5-5.5 2.6-9.6 7.5-10.4 4.9-.8 8.8 2 11.5 6.4 1.2-.2 2.3-.4 3.5-.7 3.5-.7 7-1.4 9.9 1.7 3.4 3.7 5.9 7.7 5 12.9-.7 4.3-4.7 7.4-9.2 7.4-1.6 0-3.2-.2-5-.3-.8 2.2-1.4 4.4-2.3 6.4-2.3 5.2-5.1 6.7-11.1 6-4.8-.6-6.8-2.5-8-7.8-.2-.7-.3-1.4-.5-2.2-4.9-1.8-9.7-4-9.4-10.5.2-4.9 2.1-8.5 8.1-8.9zm16.4 1.1c-.3-1.5-.4-2.7-.8-3.8-.9-2.9-5.5-5.3-8.2-4.3-3.4 1.2-4.8 4.8-3.3 8.3.4 1 1.1 1.8 1.4 2.8.4 1.3-1.1 2.5-2.3 1.9-.8-.4-1.3-1.2-2.1-1.6-2-1.1-3.9-.6-5 1.2-2.3 3.9.2 9.3 4.7 9.7 1.9.2 3.9-.5 5.8-.5 1 0 2.1.4 3.1.6l.3 1.2c-1.6 1.2-3.2 2.3-4.9 3.5-.3 2.9.6 5.2 3.8 6 3.7.9 7-.5 8.9-3.3 2.2-3.3 1.3-6.6.5-10.6 1.9.3 3.2.5 4.6.7 1.6.2 3.2.7 4.7.7 5-.1 7.8-3.8 6.6-8.6-1.2-5-5.2-7.5-10.5-6.4-2.4.6-4.6 1.6-7.3 2.5z"/><path id="XMLID_2651_" class="st1" d="M147.1 53c2.4-5.7 7.3-10.3 13.1-13.8 3.4-2 7.2-1.8 10.9-1.1 2.6.5 5.2 1.4 7.6 2.4 8.1 3.4 12.3 11.7 11 22-.7 5.6-2.8 10.6-6.5 14.9-2.8 3.3-6 5.9-10.9 5.7-4.1-.1-8.2.9-12.2.5-6.6-.6-12.1-4-14.4-10.6-1.8-5.2-2.1-10.8 0-16.2.3-1 .7-2 1.4-3.8zm2.3 3.2c-.1.2-.6 1.3-.9 2.5-3.8 12 3.1 21.8 15.6 21.7 6.9 0 13.9-.6 18.3-7.5 2.9-4.5 4.5-9.3 4.5-14.5-.1-14.4-13.6-17.9-23.4-16.8-1 .1-2.1.6-2.9 1.2-4.4 3.5-8.5 7.2-11.2 13.4z"/><path id="XMLID_2648_" class="st1" d="M41.2 235.2c-5.7-7-4.7-14.3 2.3-19.5 3.5-2.6 7.2-1.6 10.5.3 2.1 1.2 3.8 1.6 6.3 1.3 7.1-1 13.4 4.6 14.3 11.9.5 3.5-2.5 3.8-4.5 5.4.8 1.3 1.5 2.4 2.2 3.6 1.7 3 2.4 6 .2 9-2.3 3.1-5.7 4.6-9.4 3.7-3.2-.8-6.1-2.6-9.5-4.1-6.8 2.8-10.3 2.4-13.7-1.8-2.4-3.1-2.2-4.2 1.3-9.8zm22.8-2c.1-2.2 2.3-1.6 3.9-2.1 3.7-1 4.3-2.3 2.5-5.8-.4-.8-.7-1.9-1.4-2.2-2.1-1.1-4.4-2.3-6.7-2.9-2.1-.5-3 1.4-3.9 3-.4.7-1.5 1.1-2.5 1.7-.9-2.2-1.1-4.5-2.4-5.5-1.5-1.2-3.9-1.7-5.9-1.8-2.4-.1-6 4.7-6.8 8.2-1.3 6.2 3.7 6.3 7.6 7.2-.2.8-.2 1.3-.4 1.4-1.3.9-2.7 1.7-3.9 2.7-1.5 1.3-2.9 2.8-2.1 5 .6 1.9 3.7 3.7 5.7 2.9 2-.8 3.7-2.5 5.4-3.9.7-.6 1-1.7 1.4-2.5.6.3 1.1.4 1.2.7.4.8.8 1.6 1 2.4 1.5 5.3 6.8 7.6 11.5 4.9 2.9-1.7 3.7-3.8 1.8-6.5-1.6-2.5-3.8-4.5-6-6.9z"/><path id="XMLID_2645_" class="st1" d="M84.8 10C87.2 2.5 93.3-1.1 99.9.3c5.7 1.2 9.7 5.5 12.3 10.9 4.4 8.9-3.2 21.5-13.7 21.3-3.7-.1-7.4.2-10.6-2.5-5.3-4.5-6.9-9.5-4.7-16.1.5-1.3 1.1-2.6 1.6-3.9zm2.9 1.7c-.1 0-.2 0-.2-.1-.6 2-1.4 4-1.7 6.1-.6 4.2 3 9.7 7.1 10.7 7.9 1.8 13.8-.7 16.9-8.8 1.3-3.3.7-6.4-1.4-9-1.8-2.1-3.9-4.1-6.3-5.6-4.7-2.9-9.9-1.5-12.8 3.3-.7 1.1-1.1 2.3-1.6 3.4z"/><path id="XMLID_2486_" class="st1" d="M107.4 105.3c3.5 1.6 7.2 3.1 10.6 4.9 5.5 2.8 9.5 12.3 8 18.3-3.7 15-18.9 17.1-27.7 12-4.9-2.9-8.4-7.2-7.9-13.4.2-2.6.5-5.3 1.2-7.8 1.8-6.5 5.3-11.5 12.1-13.6 1.4-.1 2.5-.3 3.7-.4zm-11.6 11.8c-.6 2.4-1.2 4.8-1.7 7.2-1.9 9.3 3.8 13.2 9.9 14.7 5.8 1.4 13-1.3 16.4-6.3 3.5-5.1 3.2-10-.2-15.8-1.9-3.2-4.8-4.4-7.9-5.8-7.7-3.4-12.8-1.6-16.5 6z"/><path id="XMLID_2107_" class="st1" d="M106.3 134c-4.1-1.9-5.6-4.3-5.3-8.3.3-3.9 3.3-8 6.8-8.6 1.1-.2 3 .3 3.7 1.1 1.6 2.1 2.9 4.4 4.1 6.8 1.7 3.5 1.3 5.3-1.5 8-2.7 2.5-4.2 2.7-7.8 1zm2.5-12.7c-1.6-.6-3.4.7-4.2 3.1-.9 2.9.5 5.8 3.4 6.7 1.8.6 4.6-.8 5.2-2.6.7-1.8-2.1-6.3-4.4-7.2z"/></g></svg>